<svg xmlns="http://www.w3.org/2000/svg" xmlns:xlink="http://www.w3.org/1999/xlink" contentStyleType="text/css" height="2032px" preserveAspectRatio="none" style="width:697px;height:2032px;background:#FFFFFF;" version="1.1" viewBox="0 0 697 2032" width="697px" zoomAndPan="magnify"><defs/><g><line style="stroke:#181818;stroke-width:0.5;stroke-dasharray:5.0,5.0;" x1="23" x2="23" y1="81.2969" y2="2025.8594"/><line style="stroke:#181818;stroke-width:0.5;stroke-dasharray:5.0,5.0;" x1="69" x2="69" y1="81.2969" y2="2025.8594"/><line style="stroke:#181818;stroke-width:0.5;stroke-dasharray:5.0,5.0;" x1="241.5" x2="241.5" y1="81.2969" y2="2025.8594"/><line style="stroke:#181818;stroke-width:0.5;stroke-dasharray:5.0,5.0;" x1="469.5" x2="469.5" y1="81.2969" y2="2025.8594"/><text fill="#000000" font-family="sans-serif" font-size="14" lengthAdjust="spacing" textLength="31" x="5" y="77.9951">user</text><ellipse cx="23.5" cy="13.5" fill="#E2E2F0" rx="8" ry="8" style="stroke:#181818;stroke-width:0.5;"/><path d="M23.5,21.5 L23.5,48.5 M10.5,29.5 L36.5,29.5 M23.5,48.5 L10.5,63.5 M23.5,48.5 L36.5,63.5 " fill="none" style="stroke:#181818;stroke-width:0.5;"/><rect fill="#E2E2F0" height="30.2969" rx="2.5" ry="2.5" style="stroke:#181818;stroke-width:0.5;" width="34" x="52" y="50"/><text fill="#000000" font-family="sans-serif" font-size="14" lengthAdjust="spacing" textLength="20" x="59" y="69.9951">cui</text><rect fill="#E2E2F0" height="30.2969" rx="2.5" ry="2.5" style="stroke:#181818;stroke-width:0.5;" width="71" x="206.5" y="50"/><text fill="#000000" font-family="sans-serif" font-size="14" lengthAdjust="spacing" textLength="57" x="213.5" y="69.9951">daemon</text><rect fill="#E2E2F0" height="30.2969" rx="2.5" ry="2.5" style="stroke:#181818;stroke-width:0.5;" width="35" x="452.5" y="50"/><text fill="#000000" font-family="sans-serif" font-size="14" lengthAdjust="spacing" textLength="21" x="459.5" y="69.9951">DB</text><rect fill="#EEEEEE" height="3" style="stroke:#EEEEEE;stroke-width:1.0;" width="690" x="0" y="111.8633"/><line style="stroke:#000000;stroke-width:1.0;" x1="0" x2="690" y1="111.8633" y2="111.8633"/><line style="stroke:#000000;stroke-width:1.0;" x1="0" x2="690" y1="114.8633" y2="114.8633"/><rect fill="#EEEEEE" height="23.1328" style="stroke:#000000;stroke-width:2.0;" width="145" x="272.5" y="101.2969"/><text fill="#000000" font-family="sans-serif" font-size="13" font-weight="bold" lengthAdjust="spacing" textLength="126" x="278.5" y="117.3638">initialize daemon</text><polygon fill="#181818" points="230,151.5625,240,155.5625,230,159.5625,234,155.5625" style="stroke:#181818;stroke-width:1.0;"/><line style="stroke:#181818;stroke-width:1.0;" x1="23.5" x2="236" y1="155.5625" y2="155.5625"/><text fill="#000000" font-family="sans-serif" font-size="13" lengthAdjust="spacing" textLength="42" x="30.5" y="150.4966">launch</text><polygon fill="#181818" points="458,180.6953,468,184.6953,458,188.6953,462,184.6953" style="stroke:#181818;stroke-width:1.0;"/><line style="stroke:#181818;stroke-width:1.0;" x1="242" x2="464" y1="184.6953" y2="184.6953"/><text fill="#000000" font-family="sans-serif" font-size="13" lengthAdjust="spacing" textLength="204" x="249" y="179.6294">create config and DB if not exist</text><polygon fill="#181818" points="253,209.8281,243,213.8281,253,217.8281,249,213.8281" style="stroke:#181818;stroke-width:1.0;"/><line style="stroke:#181818;stroke-width:1.0;" x1="247" x2="469" y1="213.8281" y2="213.8281"/><text fill="#000000" font-family="sans-serif" font-size="13" lengthAdjust="spacing" textLength="15" x="259" y="208.7622">ok</text><line style="stroke:#181818;stroke-width:1.0;" x1="242" x2="284" y1="242.9609" y2="242.9609"/><line style="stroke:#181818;stroke-width:1.0;" x1="284" x2="284" y1="242.9609" y2="255.9609"/><line style="stroke:#181818;stroke-width:1.0;" x1="243" x2="284" y1="255.9609" y2="255.9609"/><polygon fill="#181818" points="253,251.9609,243,255.9609,253,259.9609,249,255.9609" style="stroke:#181818;stroke-width:1.0;"/><text fill="#000000" font-family="sans-serif" font-size="13" lengthAdjust="spacing" textLength="111" x="249" y="237.895">start gRPC server</text><polygon fill="#181818" points="34.5,281.0938,24.5,285.0938,34.5,289.0938,30.5,285.0938" style="stroke:#181818;stroke-width:1.0;"/><line style="stroke:#181818;stroke-width:1.0;" x1="28.5" x2="241" y1="285.0938" y2="285.0938"/><text fill="#000000" font-family="sans-serif" font-size="13" lengthAdjust="spacing" textLength="15" x="40.5" y="280.0278">ok</text><rect fill="#EEEEEE" height="3" style="stroke:#EEEEEE;stroke-width:1.0;" width="690" x="0" y="313.6602"/><line style="stroke:#000000;stroke-width:1.0;" x1="0" x2="690" y1="313.6602" y2="313.6602"/><line style="stroke:#000000;stroke-width:1.0;" x1="0" x2="690" y1="316.6602" y2="316.6602"/><rect fill="#EEEEEE" height="23.1328" style="stroke:#000000;stroke-width:2.0;" width="134" x="278" y="303.0938"/><text fill="#000000" font-family="sans-serif" font-size="13" font-weight="bold" lengthAdjust="spacing" textLength="115" x="284" y="319.1606">add a new task</text><polygon fill="#181818" points="230,368.4922,240,372.4922,230,376.4922,234,372.4922" style="stroke:#181818;stroke-width:1.0;"/><line style="stroke:#181818;stroke-width:1.0;" x1="69" x2="236" y1="372.4922" y2="372.4922"/><text fill="#000000" font-family="sans-serif" font-size="13" lengthAdjust="spacing" textLength="100" x="76" y="352.2935">command(new)</text><text fill="#000000" font-family="sans-serif" font-size="13" lengthAdjust="spacing" textLength="55" x="80" y="367.4263">via gRPC</text><path d="M247,385.4922 L247,455.4922 L334,455.4922 L334,395.4922 L324,385.4922 L247,385.4922 " fill="#FEFFDD" style="stroke:#181818;stroke-width:0.5;"/><path d="M324,385.4922 L324,395.4922 L334,395.4922 L324,385.4922 " fill="#FEFFDD" style="stroke:#181818;stroke-width:0.5;"/><text fill="#000000" font-family="sans-serif" font-size="13" lengthAdjust="spacing" textLength="66" x="253" y="402.5591">with task's</text><text fill="#000000" font-family="sans-serif" font-size="13" lengthAdjust="spacing" textLength="37" x="257" y="417.6919">name</text><text fill="#000000" font-family="sans-serif" font-size="13" lengthAdjust="spacing" textLength="40" x="257" y="432.8247">status</text><text fill="#000000" font-family="sans-serif" font-size="13" lengthAdjust="spacing" textLength="30" x="257" y="447.9575">label</text><polygon fill="#181818" points="458,478.1563,468,482.1563,458,486.1563,462,482.1563" style="stroke:#181818;stroke-width:1.0;"/><line style="stroke:#181818;stroke-width:1.0;" x1="242" x2="464" y1="482.1563" y2="482.1563"/><text fill="#000000" font-family="sans-serif" font-size="13" lengthAdjust="spacing" textLength="131" x="249" y="477.0903">execute insert query</text><polygon fill="#181818" points="253,507.2891,243,511.2891,253,515.2891,249,511.2891" style="stroke:#181818;stroke-width:1.0;"/><line style="stroke:#181818;stroke-width:1.0;" x1="247" x2="469" y1="511.2891" y2="511.2891"/><text fill="#000000" font-family="sans-serif" font-size="13" lengthAdjust="spacing" textLength="15" x="259" y="506.2231">ok</text><polygon fill="#181818" points="80,536.4219,70,540.4219,80,544.4219,76,540.4219" style="stroke:#181818;stroke-width:1.0;"/><line style="stroke:#181818;stroke-width:1.0;" x1="74" x2="241" y1="540.4219" y2="540.4219"/><text fill="#000000" font-family="sans-serif" font-size="13" lengthAdjust="spacing" textLength="15" x="86" y="535.356">ok</text><rect fill="#EEEEEE" height="3" style="stroke:#EEEEEE;stroke-width:1.0;" width="690" x="0" y="568.9883"/><line style="stroke:#000000;stroke-width:1.0;" x1="0" x2="690" y1="568.9883" y2="568.9883"/><line style="stroke:#000000;stroke-width:1.0;" x1="0" x2="690" y1="571.9883" y2="571.9883"/><rect fill="#EEEEEE" height="23.1328" style="stroke:#000000;stroke-width:2.0;" width="267" x="211.5" y="558.4219"/><text fill="#000000" font-family="sans-serif" font-size="13" font-weight="bold" lengthAdjust="spacing" textLength="248" x="217.5" y="574.4888">retrieve list of tasks (ordinal use)</text><polygon fill="#181818" points="230,623.8203,240,627.8203,230,631.8203,234,627.8203" style="stroke:#181818;stroke-width:1.0;"/><line style="stroke:#181818;stroke-width:1.0;" x1="69" x2="236" y1="627.8203" y2="627.8203"/><text fill="#000000" font-family="sans-serif" font-size="13" lengthAdjust="spacing" textLength="93" x="76" y="607.6216">command(list)</text><text fill="#000000" font-family="sans-serif" font-size="13" lengthAdjust="spacing" textLength="55" x="80" y="622.7544">via gRPC</text><path d="M247,640.8203 L247,725.8203 L358,725.8203 L358,650.8203 L348,640.8203 L247,640.8203 " fill="#FEFFDD" style="stroke:#181818;stroke-width:0.5;"/><path d="M348,640.8203 L348,650.8203 L358,650.8203 L348,640.8203 " fill="#FEFFDD" style="stroke:#181818;stroke-width:0.5;"/><text fill="#000000" font-family="sans-serif" font-size="13" lengthAdjust="spacing" textLength="25" x="253" y="657.8872">with</text><text fill="#000000" font-family="sans-serif" font-size="13" lengthAdjust="spacing" textLength="50" x="257" y="673.02">Backlog</text><text fill="#000000" font-family="sans-serif" font-size="13" lengthAdjust="spacing" textLength="33" x="257" y="688.1528">ToDo</text><text fill="#000000" font-family="sans-serif" font-size="13" lengthAdjust="spacing" textLength="37" x="257" y="703.2856">Doing</text><text fill="#000000" font-family="sans-serif" font-size="13" lengthAdjust="spacing" textLength="86" x="257" y="718.4185">Today's Done</text><polygon fill="#181818" points="458,748.6172,468,752.6172,458,756.6172,462,752.6172" style="stroke:#181818;stroke-width:1.0;"/><line style="stroke:#181818;stroke-width:1.0;" x1="242" x2="464" y1="752.6172" y2="752.6172"/><text fill="#000000" font-family="sans-serif" font-size="13" lengthAdjust="spacing" textLength="133" x="249" y="747.5513">execute select query</text><polygon fill="#181818" points="253,777.75,243,781.75,253,785.75,249,781.75" style="stroke:#181818;stroke-width:1.0;"/><line style="stroke:#181818;stroke-width:1.0;" x1="247" x2="469" y1="781.75" y2="781.75"/><text fill="#000000" font-family="sans-serif" font-size="13" lengthAdjust="spacing" textLength="107" x="259" y="776.6841">ok (with task list)</text><polygon fill="#181818" points="80,806.8828,70,810.8828,80,814.8828,76,810.8828" style="stroke:#181818;stroke-width:1.0;"/><line style="stroke:#181818;stroke-width:1.0;" x1="74" x2="241" y1="810.8828" y2="810.8828"/><text fill="#000000" font-family="sans-serif" font-size="13" lengthAdjust="spacing" textLength="107" x="86" y="805.8169">ok (with task list)</text><line style="stroke:#181818;stroke-width:1.0;" x1="69" x2="111" y1="855.1484" y2="855.1484"/><line style="stroke:#181818;stroke-width:1.0;" x1="111" x2="111" y1="855.1484" y2="868.1484"/><line style="stroke:#181818;stroke-width:1.0;" x1="70" x2="111" y1="868.1484" y2="868.1484"/><polygon fill="#181818" points="80,864.1484,70,868.1484,80,872.1484,76,868.1484" style="stroke:#181818;stroke-width:1.0;"/><text fill="#000000" font-family="sans-serif" font-size="13" lengthAdjust="spacing" textLength="80" x="76" y="834.9497">render using</text><text fill="#000000" font-family="sans-serif" font-size="13" lengthAdjust="spacing" textLength="92" x="80" y="850.0825">received tasks</text><rect fill="#EEEEEE" height="3" style="stroke:#EEEEEE;stroke-width:1.0;" width="690" x="0" y="896.7148"/><line style="stroke:#000000;stroke-width:1.0;" x1="0" x2="690" y1="896.7148" y2="896.7148"/><line style="stroke:#000000;stroke-width:1.0;" x1="0" x2="690" y1="899.7148" y2="899.7148"/><rect fill="#EEEEEE" height="23.1328" style="stroke:#000000;stroke-width:2.0;" width="272" x="209" y="886.1484"/><text fill="#000000" font-family="sans-serif" font-size="13" font-weight="bold" lengthAdjust="spacing" textLength="253" x="215" y="902.2153">retrieve list of tasks (long history)</text><polygon fill="#181818" points="230,951.5469,240,955.5469,230,959.5469,234,955.5469" style="stroke:#181818;stroke-width:1.0;"/><line style="stroke:#181818;stroke-width:1.0;" x1="69" x2="236" y1="955.5469" y2="955.5469"/><text fill="#000000" font-family="sans-serif" font-size="13" lengthAdjust="spacing" textLength="93" x="76" y="935.3481">command(list)</text><text fill="#000000" font-family="sans-serif" font-size="13" lengthAdjust="spacing" textLength="55" x="80" y="950.481">via gRPC</text><path d="M247,968.5469 L247,1038.5469 L385,1038.5469 L385,978.5469 L375,968.5469 L247,968.5469 " fill="#FEFFDD" style="stroke:#181818;stroke-width:0.5;"/><path d="M375,968.5469 L375,978.5469 L385,978.5469 L375,968.5469 " fill="#FEFFDD" style="stroke:#181818;stroke-width:0.5;"/><text fill="#000000" font-family="sans-serif" font-size="13" lengthAdjust="spacing" textLength="25" x="253" y="985.6138">with</text><text fill="#000000" font-family="sans-serif" font-size="13" lengthAdjust="spacing" textLength="113" x="257" y="1000.7466">Done of this week</text><text fill="#000000" font-family="sans-serif" font-size="13" lengthAdjust="spacing" textLength="86" x="257" y="1015.8794">or this month</text><text fill="#000000" font-family="sans-serif" font-size="13" lengthAdjust="spacing" textLength="105" x="257" y="1031.0122">or last 2 months</text><polygon fill="#181818" points="458,1061.2109,468,1065.2109,458,1069.2109,462,1065.2109" style="stroke:#181818;stroke-width:1.0;"/><line style="stroke:#181818;stroke-width:1.0;" x1="242" x2="464" y1="1065.2109" y2="1065.2109"/><text fill="#000000" font-family="sans-serif" font-size="13" lengthAdjust="spacing" textLength="133" x="249" y="1060.145">execute select query</text><polygon fill="#181818" points="253,1090.3438,243,1094.3438,253,1098.3438,249,1094.3438" style="stroke:#181818;stroke-width:1.0;"/><line style="stroke:#181818;stroke-width:1.0;" x1="247" x2="469" y1="1094.3438" y2="1094.3438"/><text fill="#000000" font-family="sans-serif" font-size="13" lengthAdjust="spacing" textLength="107" x="259" y="1089.2778">ok (with task list)</text><polygon fill="#181818" points="80,1119.4766,70,1123.4766,80,1127.4766,76,1123.4766" style="stroke:#181818;stroke-width:1.0;"/><line style="stroke:#181818;stroke-width:1.0;" x1="74" x2="241" y1="1123.4766" y2="1123.4766"/><text fill="#000000" font-family="sans-serif" font-size="13" lengthAdjust="spacing" textLength="107" x="86" y="1118.4106">ok (with task list)</text><line style="stroke:#181818;stroke-width:1.0;" x1="69" x2="111" y1="1167.7422" y2="1167.7422"/><line style="stroke:#181818;stroke-width:1.0;" x1="111" x2="111" y1="1167.7422" y2="1180.7422"/><line style="stroke:#181818;stroke-width:1.0;" x1="70" x2="111" y1="1180.7422" y2="1180.7422"/><polygon fill="#181818" points="80,1176.7422,70,1180.7422,80,1184.7422,76,1180.7422" style="stroke:#181818;stroke-width:1.0;"/><text fill="#000000" font-family="sans-serif" font-size="13" lengthAdjust="spacing" textLength="80" x="76" y="1147.5435">render using</text><text fill="#000000" font-family="sans-serif" font-size="13" lengthAdjust="spacing" textLength="92" x="80" y="1162.6763">received tasks</text><rect fill="#EEEEEE" height="3" style="stroke:#EEEEEE;stroke-width:1.0;" width="690" x="0" y="1209.3086"/><line style="stroke:#000000;stroke-width:1.0;" x1="0" x2="690" y1="1209.3086" y2="1209.3086"/><line style="stroke:#000000;stroke-width:1.0;" x1="0" x2="690" y1="1212.3086" y2="1212.3086"/><rect fill="#EEEEEE" height="23.1328" style="stroke:#000000;stroke-width:2.0;" width="178" x="256" y="1198.7422"/><text fill="#000000" font-family="sans-serif" font-size="13" font-weight="bold" lengthAdjust="spacing" textLength="159" x="262" y="1214.8091">move a task to Doing</text><polygon fill="#181818" points="230,1264.1406,240,1268.1406,230,1272.1406,234,1268.1406" style="stroke:#181818;stroke-width:1.0;"/><line style="stroke:#181818;stroke-width:1.0;" x1="69" x2="236" y1="1268.1406" y2="1268.1406"/><text fill="#000000" font-family="sans-serif" font-size="13" lengthAdjust="spacing" textLength="120" x="76" y="1247.9419">command(update)</text><text fill="#000000" font-family="sans-serif" font-size="13" lengthAdjust="spacing" textLength="55" x="80" y="1263.0747">via gRPC</text><path d="M247,1281.1406 L247,1336.1406 L392,1336.1406 L392,1291.1406 L382,1281.1406 L247,1281.1406 " fill="#FEFFDD" style="stroke:#181818;stroke-width:0.5;"/><path d="M382,1281.1406 L382,1291.1406 L392,1291.1406 L382,1281.1406 " fill="#FEFFDD" style="stroke:#181818;stroke-width:0.5;"/><text fill="#000000" font-family="sans-serif" font-size="13" lengthAdjust="spacing" textLength="25" x="253" y="1298.2075">with</text><text fill="#000000" font-family="sans-serif" font-size="13" lengthAdjust="spacing" textLength="42" x="257" y="1313.3403">task id</text><text fill="#000000" font-family="sans-serif" font-size="13" lengthAdjust="spacing" textLength="120" x="257" y="1328.4731">new status (Doing)</text><polygon fill="#181818" points="458,1358.6719,468,1362.6719,458,1366.6719,462,1362.6719" style="stroke:#181818;stroke-width:1.0;"/><line style="stroke:#181818;stroke-width:1.0;" x1="242" x2="464" y1="1362.6719" y2="1362.6719"/><text fill="#000000" font-family="sans-serif" font-size="13" lengthAdjust="spacing" textLength="140" x="249" y="1357.606">execute update query</text><path d="M475,1375.6719 L475,1430.6719 L685,1430.6719 L685,1385.6719 L675,1375.6719 L475,1375.6719 " fill="#FEFFDD" style="stroke:#181818;stroke-width:0.5;"/><path d="M675,1375.6719 L675,1385.6719 L685,1385.6719 L675,1375.6719 " fill="#FEFFDD" style="stroke:#181818;stroke-width:0.5;"/><text fill="#000000" font-family="sans-serif" font-size="13" lengthAdjust="spacing" textLength="51" x="481" y="1392.7388">execute</text><text fill="#000000" font-family="sans-serif" font-size="13" lengthAdjust="spacing" textLength="181" x="485" y="1407.8716">move current Doing to ToDo</text><text fill="#000000" font-family="sans-serif" font-size="13" lengthAdjust="spacing" textLength="185" x="485" y="1423.0044">move specified task to Doing</text><polygon fill="#181818" points="253,1453.2031,243,1457.2031,253,1461.2031,249,1457.2031" style="stroke:#181818;stroke-width:1.0;"/><line style="stroke:#181818;stroke-width:1.0;" x1="247" x2="469" y1="1457.2031" y2="1457.2031"/><text fill="#000000" font-family="sans-serif" font-size="13" lengthAdjust="spacing" textLength="149" x="259" y="1452.1372">ok (with updated tasks)</text><polygon fill="#181818" points="80,1482.3359,70,1486.3359,80,1490.3359,76,1486.3359" style="stroke:#181818;stroke-width:1.0;"/><line style="stroke:#181818;stroke-width:1.0;" x1="74" x2="241" y1="1486.3359" y2="1486.3359"/><text fill="#000000" font-family="sans-serif" font-size="13" lengthAdjust="spacing" textLength="149" x="86" y="1481.27">ok (with updated tasks)</text><polygon fill="#181818" points="230,1511.4688,240,1515.4688,230,1519.4688,234,1515.4688" style="stroke:#181818;stroke-width:1.0;"/><line style="stroke:#181818;stroke-width:1.0;" x1="69" x2="236" y1="1515.4688" y2="1515.4688"/><text fill="#000000" font-family="sans-serif" font-size="13" lengthAdjust="spacing" textLength="125" x="76" y="1510.4028">retrieve list of tasks</text><polygon fill="#181818" points="80,1540.6016,70,1544.6016,80,1548.6016,76,1544.6016" style="stroke:#181818;stroke-width:1.0;"/><line style="stroke:#181818;stroke-width:1.0;" x1="74" x2="241" y1="1544.6016" y2="1544.6016"/><text fill="#000000" font-family="sans-serif" font-size="13" lengthAdjust="spacing" textLength="72" x="86" y="1539.5356">list of tasks</text><line style="stroke:#181818;stroke-width:1.0;" x1="69" x2="111" y1="1588.8672" y2="1588.8672"/><line style="stroke:#181818;stroke-width:1.0;" x1="111" x2="111" y1="1588.8672" y2="1601.8672"/><line style="stroke:#181818;stroke-width:1.0;" x1="70" x2="111" y1="1601.8672" y2="1601.8672"/><polygon fill="#181818" points="80,1597.8672,70,1601.8672,80,1605.8672,76,1601.8672" style="stroke:#181818;stroke-width:1.0;"/><text fill="#000000" font-family="sans-serif" font-size="13" lengthAdjust="spacing" textLength="80" x="76" y="1568.6685">render using</text><text fill="#000000" font-family="sans-serif" font-size="13" lengthAdjust="spacing" textLength="92" x="80" y="1583.8013">received tasks</text><rect fill="#EEEEEE" height="3" style="stroke:#EEEEEE;stroke-width:1.0;" width="690" x="0" y="1630.4336"/><line style="stroke:#000000;stroke-width:1.0;" x1="0" x2="690" y1="1630.4336" y2="1630.4336"/><line style="stroke:#000000;stroke-width:1.0;" x1="0" x2="690" y1="1633.4336" y2="1633.4336"/><rect fill="#EEEEEE" height="23.1328" style="stroke:#000000;stroke-width:2.0;" width="173" x="258.5" y="1619.8672"/><text fill="#000000" font-family="sans-serif" font-size="13" font-weight="bold" lengthAdjust="spacing" textLength="154" x="264.5" y="1635.9341">move a task to Done</text><polygon fill="#181818" points="230,1685.2656,240,1689.2656,230,1693.2656,234,1689.2656" style="stroke:#181818;stroke-width:1.0;"/><line style="stroke:#181818;stroke-width:1.0;" x1="69" x2="236" y1="1689.2656" y2="1689.2656"/><text fill="#000000" font-family="sans-serif" font-size="13" lengthAdjust="spacing" textLength="120" x="76" y="1669.0669">command(update)</text><text fill="#000000" font-family="sans-serif" font-size="13" lengthAdjust="spacing" textLength="55" x="80" y="1684.1997">via gRPC</text><path d="M247,1702.2656 L247,1757.2656 L389,1757.2656 L389,1712.2656 L379,1702.2656 L247,1702.2656 " fill="#FEFFDD" style="stroke:#181818;stroke-width:0.5;"/><path d="M379,1702.2656 L379,1712.2656 L389,1712.2656 L379,1702.2656 " fill="#FEFFDD" style="stroke:#181818;stroke-width:0.5;"/><text fill="#000000" font-family="sans-serif" font-size="13" lengthAdjust="spacing" textLength="25" x="253" y="1719.3325">with</text><text fill="#000000" font-family="sans-serif" font-size="13" lengthAdjust="spacing" textLength="42" x="257" y="1734.4653">task id</text><text fill="#000000" font-family="sans-serif" font-size="13" lengthAdjust="spacing" textLength="117" x="257" y="1749.5981">new status (Done)</text><polygon fill="#181818" points="458,1779.7969,468,1783.7969,458,1787.7969,462,1783.7969" style="stroke:#181818;stroke-width:1.0;"/><line style="stroke:#181818;stroke-width:1.0;" x1="242" x2="464" y1="1783.7969" y2="1783.7969"/><text fill="#000000" font-family="sans-serif" font-size="13" lengthAdjust="spacing" textLength="140" x="249" y="1778.731">execute update query</text><path d="M475,1796.7969 L475,1836.7969 L682,1836.7969 L682,1806.7969 L672,1796.7969 L475,1796.7969 " fill="#FEFFDD" style="stroke:#181818;stroke-width:0.5;"/><path d="M672,1796.7969 L672,1806.7969 L682,1806.7969 L672,1796.7969 " fill="#FEFFDD" style="stroke:#181818;stroke-width:0.5;"/><text fill="#000000" font-family="sans-serif" font-size="13" lengthAdjust="spacing" textLength="51" x="481" y="1813.8638">execute</text><text fill="#000000" font-family="sans-serif" font-size="13" lengthAdjust="spacing" textLength="182" x="485" y="1828.9966">move current Doing to Done</text><polygon fill="#181818" points="253,1859.1953,243,1863.1953,253,1867.1953,249,1863.1953" style="stroke:#181818;stroke-width:1.0;"/><line style="stroke:#181818;stroke-width:1.0;" x1="247" x2="469" y1="1863.1953" y2="1863.1953"/><text fill="#000000" font-family="sans-serif" font-size="13" lengthAdjust="spacing" textLength="142" x="259" y="1858.1294">ok (with updated task)</text><polygon fill="#181818" points="80,1888.3281,70,1892.3281,80,1896.3281,76,1892.3281" style="stroke:#181818;stroke-width:1.0;"/><line style="stroke:#181818;stroke-width:1.0;" x1="74" x2="241" y1="1892.3281" y2="1892.3281"/><text fill="#000000" font-family="sans-serif" font-size="13" lengthAdjust="spacing" textLength="142" x="86" y="1887.2622">ok (with updated task)</text><polygon fill="#181818" points="230,1917.4609,240,1921.4609,230,1925.4609,234,1921.4609" style="stroke:#181818;stroke-width:1.0;"/><line style="stroke:#181818;stroke-width:1.0;" x1="69" x2="236" y1="1921.4609" y2="1921.4609"/><text fill="#000000" font-family="sans-serif" font-size="13" lengthAdjust="spacing" textLength="125" x="76" y="1916.395">retrieve list of tasks</text><polygon fill="#181818" points="80,1946.5938,70,1950.5938,80,1954.5938,76,1950.5938" style="stroke:#181818;stroke-width:1.0;"/><line style="stroke:#181818;stroke-width:1.0;" x1="74" x2="241" y1="1950.5938" y2="1950.5938"/><text fill="#000000" font-family="sans-serif" font-size="13" lengthAdjust="spacing" textLength="72" x="86" y="1945.5278">list of tasks</text><line style="stroke:#181818;stroke-width:1.0;" x1="69" x2="111" y1="1994.8594" y2="1994.8594"/><line style="stroke:#181818;stroke-width:1.0;" x1="111" x2="111" y1="1994.8594" y2="2007.8594"/><line style="stroke:#181818;stroke-width:1.0;" x1="70" x2="111" y1="2007.8594" y2="2007.8594"/><polygon fill="#181818" points="80,2003.8594,70,2007.8594,80,2011.8594,76,2007.8594" style="stroke:#181818;stroke-width:1.0;"/><text fill="#000000" font-family="sans-serif" font-size="13" lengthAdjust="spacing" textLength="80" x="76" y="1974.6606">render using</text><text fill="#000000" font-family="sans-serif" font-size="13" lengthAdjust="spacing" textLength="92" x="80" y="1989.7935">received tasks</text></g></svg>