<svg xmlns="http://www.w3.org/2000/svg" xmlns:xlink="http://www.w3.org/1999/xlink" contentStyleType="text/css" height="410px" preserveAspectRatio="none" style="width:478px;height:410px;background:#FFFFFF;" version="1.1" viewBox="0 0 478 410" width="478px" zoomAndPan="magnify"><defs/><g><!--cluster local--><g id="cluster_local"><path d="M8.5,6 L45.5,6 A3.75,3.75 0 0 1 48,8.5 L55,28.2969 L468.5,28.2969 A2.5,2.5 0 0 1 471,30.7969 L471,277.5 A2.5,2.5 0 0 1 468.5,280 L8.5,280 A2.5,2.5 0 0 1 6,277.5 L6,8.5 A2.5,2.5 0 0 1 8.5,6 " fill="none" style="stroke:#000000;stroke-width:1.5;"/><line style="stroke:#000000;stroke-width:1.5;" x1="6" x2="55" y1="28.2969" y2="28.2969"/><text fill="#000000" font-family="sans-serif" font-size="14" font-weight="bold" lengthAdjust="spacing" textLength="36" x="10" y="20.9951">local</text></g><!--cluster pc--><g id="cluster_pc"><path d="M32.5,49 L52.5,49 A3.75,3.75 0 0 1 55,51.5 L62,71.2969 L240.5,71.2969 A2.5,2.5 0 0 1 243,73.7969 L243,253.5 A2.5,2.5 0 0 1 240.5,256 L32.5,256 A2.5,2.5 0 0 1 30,253.5 L30,51.5 A2.5,2.5 0 0 1 32.5,49 " fill="none" style="stroke:#000000;stroke-width:1.5;"/><line style="stroke:#000000;stroke-width:1.5;" x1="30" x2="62" y1="71.2969" y2="71.2969"/><text fill="#000000" font-family="sans-serif" font-size="14" font-weight="bold" lengthAdjust="spacing" textLength="19" x="34" y="63.9951">pc</text></g><!--cluster android--><g id="cluster_android"><path d="M269.5,49 L330.5,49 A3.75,3.75 0 0 1 333,51.5 L340,71.2969 L444.5,71.2969 A2.5,2.5 0 0 1 447,73.7969 L447,253.5 A2.5,2.5 0 0 1 444.5,256 L269.5,256 A2.5,2.5 0 0 1 267,253.5 L267,51.5 A2.5,2.5 0 0 1 269.5,49 " fill="none" style="stroke:#000000;stroke-width:1.5;"/><line style="stroke:#000000;stroke-width:1.5;" x1="267" x2="340" y1="71.2969" y2="71.2969"/><text fill="#000000" font-family="sans-serif" font-size="14" font-weight="bold" lengthAdjust="spacing" textLength="60" x="271" y="63.9951">android</text></g><!--cluster cloud--><g id="cluster_cloud"><path d="M201.5,304 L245.5,304 A3.75,3.75 0 0 1 248,306.5 L255,326.2969 L326.5,326.2969 A2.5,2.5 0 0 1 329,328.7969 L329,400.5 A2.5,2.5 0 0 1 326.5,403 L201.5,403 A2.5,2.5 0 0 1 199,400.5 L199,306.5 A2.5,2.5 0 0 1 201.5,304 " fill="none" style="stroke:#000000;stroke-width:1.5;"/><line style="stroke:#000000;stroke-width:1.5;" x1="199" x2="255" y1="326.2969" y2="326.2969"/><text fill="#000000" font-family="sans-serif" font-size="14" font-weight="bold" lengthAdjust="spacing" textLength="43" x="203" y="318.9951">cloud</text></g><!--class pc_cli--><g id="elem_pc_cli"><rect codeLine="4" fill="#F1F1F1" height="48" id="pc_cli" rx="2.5" ry="2.5" style="stroke:#181818;stroke-width:0.5;" width="70" x="46" y="84"/><ellipse cx="61" cy="100" fill="#ADD1B2" rx="11" ry="11" style="stroke:#181818;stroke-width:1.0;"/><path d="M63.9688,105.6406 Q63.3906,105.9375 62.75,106.0781 Q62.1094,106.2344 61.4063,106.2344 Q58.9063,106.2344 57.5781,104.5938 Q56.2656,102.9375 56.2656,99.8125 Q56.2656,96.6875 57.5781,95.0313 Q58.9063,93.375 61.4063,93.375 Q62.1094,93.375 62.75,93.5313 Q63.4063,93.6875 63.9688,93.9844 L63.9688,96.7031 Q63.3438,96.125 62.75,95.8594 Q62.1563,95.5781 61.5313,95.5781 Q60.1875,95.5781 59.5,96.6563 Q58.8125,97.7188 58.8125,99.8125 Q58.8125,101.9063 59.5,102.9844 Q60.1875,104.0469 61.5313,104.0469 Q62.1563,104.0469 62.75,103.7813 Q63.3438,103.5 63.9688,102.9219 L63.9688,105.6406 Z " fill="#000000"/><text fill="#000000" font-family="sans-serif" font-size="14" lengthAdjust="spacing" textLength="38" x="75" y="104.8467">pc_cli</text><line style="stroke:#181818;stroke-width:0.5;" x1="47" x2="115" y1="116" y2="116"/><line style="stroke:#181818;stroke-width:0.5;" x1="47" x2="115" y1="124" y2="124"/></g><!--class pc_gui--><g id="elem_pc_gui"><rect codeLine="6" fill="#F1F1F1" height="48" id="pc_gui" rx="2.5" ry="2.5" style="stroke:#181818;stroke-width:0.5;" width="77" x="150.5" y="84"/><ellipse cx="165.5" cy="100" fill="#ADD1B2" rx="11" ry="11" style="stroke:#181818;stroke-width:1.0;"/><path d="M168.4688,105.6406 Q167.8906,105.9375 167.25,106.0781 Q166.6094,106.2344 165.9063,106.2344 Q163.4063,106.2344 162.0781,104.5938 Q160.7656,102.9375 160.7656,99.8125 Q160.7656,96.6875 162.0781,95.0313 Q163.4063,93.375 165.9063,93.375 Q166.6094,93.375 167.25,93.5313 Q167.9063,93.6875 168.4688,93.9844 L168.4688,96.7031 Q167.8438,96.125 167.25,95.8594 Q166.6563,95.5781 166.0313,95.5781 Q164.6875,95.5781 164,96.6563 Q163.3125,97.7188 163.3125,99.8125 Q163.3125,101.9063 164,102.9844 Q164.6875,104.0469 166.0313,104.0469 Q166.6563,104.0469 167.25,103.7813 Q167.8438,103.5 168.4688,102.9219 L168.4688,105.6406 Z " fill="#000000"/><text fill="#000000" font-family="sans-serif" font-size="14" lengthAdjust="spacing" textLength="45" x="179.5" y="104.8467">pc_gui</text><line style="stroke:#181818;stroke-width:0.5;" x1="151.5" x2="226.5" y1="116" y2="116"/><line style="stroke:#181818;stroke-width:0.5;" x1="151.5" x2="226.5" y1="124" y2="124"/></g><!--class pc_daemon--><g id="elem_pc_daemon"><rect codeLine="8" fill="#F1F1F1" height="48" id="pc_daemon" rx="2.5" ry="2.5" style="stroke:#181818;stroke-width:0.5;" width="113" x="114.5" y="192"/><ellipse cx="129.5" cy="208" fill="#ADD1B2" rx="11" ry="11" style="stroke:#181818;stroke-width:1.0;"/><path d="M132.4688,213.6406 Q131.8906,213.9375 131.25,214.0781 Q130.6094,214.2344 129.9063,214.2344 Q127.4063,214.2344 126.0781,212.5938 Q124.7656,210.9375 124.7656,207.8125 Q124.7656,204.6875 126.0781,203.0313 Q127.4063,201.375 129.9063,201.375 Q130.6094,201.375 131.25,201.5313 Q131.9063,201.6875 132.4688,201.9844 L132.4688,204.7031 Q131.8438,204.125 131.25,203.8594 Q130.6563,203.5781 130.0313,203.5781 Q128.6875,203.5781 128,204.6563 Q127.3125,205.7188 127.3125,207.8125 Q127.3125,209.9063 128,210.9844 Q128.6875,212.0469 130.0313,212.0469 Q130.6563,212.0469 131.25,211.7813 Q131.8438,211.5 132.4688,210.9219 L132.4688,213.6406 Z " fill="#000000"/><text fill="#000000" font-family="sans-serif" font-size="14" lengthAdjust="spacing" textLength="81" x="143.5" y="212.8467">pc_daemon</text><line style="stroke:#181818;stroke-width:0.5;" x1="115.5" x2="226.5" y1="224" y2="224"/><line style="stroke:#181818;stroke-width:0.5;" x1="115.5" x2="226.5" y1="232" y2="232"/></g><!--class android_gui--><g id="elem_android_gui"><rect codeLine="13" fill="#F1F1F1" height="48" id="android_gui" rx="2.5" ry="2.5" style="stroke:#181818;stroke-width:0.5;" width="112" x="301" y="84"/><ellipse cx="316" cy="100" fill="#ADD1B2" rx="11" ry="11" style="stroke:#181818;stroke-width:1.0;"/><path d="M318.9688,105.6406 Q318.3906,105.9375 317.75,106.0781 Q317.1094,106.2344 316.4063,106.2344 Q313.9063,106.2344 312.5781,104.5938 Q311.2656,102.9375 311.2656,99.8125 Q311.2656,96.6875 312.5781,95.0313 Q313.9063,93.375 316.4063,93.375 Q317.1094,93.375 317.75,93.5313 Q318.4063,93.6875 318.9688,93.9844 L318.9688,96.7031 Q318.3438,96.125 317.75,95.8594 Q317.1563,95.5781 316.5313,95.5781 Q315.1875,95.5781 314.5,96.6563 Q313.8125,97.7188 313.8125,99.8125 Q313.8125,101.9063 314.5,102.9844 Q315.1875,104.0469 316.5313,104.0469 Q317.1563,104.0469 317.75,103.7813 Q318.3438,103.5 318.9688,102.9219 L318.9688,105.6406 Z " fill="#000000"/><text fill="#000000" font-family="sans-serif" font-size="14" lengthAdjust="spacing" textLength="80" x="330" y="104.8467">android_gui</text><line style="stroke:#181818;stroke-width:0.5;" x1="302" x2="412" y1="116" y2="116"/><line style="stroke:#181818;stroke-width:0.5;" x1="302" x2="412" y1="124" y2="124"/></g><!--class android_daemon--><g id="elem_android_daemon"><rect codeLine="15" fill="#F1F1F1" height="48" id="android_daemon" rx="2.5" ry="2.5" style="stroke:#181818;stroke-width:0.5;" width="148" x="283" y="192"/><ellipse cx="298" cy="208" fill="#ADD1B2" rx="11" ry="11" style="stroke:#181818;stroke-width:1.0;"/><path d="M300.9688,213.6406 Q300.3906,213.9375 299.75,214.0781 Q299.1094,214.2344 298.4063,214.2344 Q295.9063,214.2344 294.5781,212.5938 Q293.2656,210.9375 293.2656,207.8125 Q293.2656,204.6875 294.5781,203.0313 Q295.9063,201.375 298.4063,201.375 Q299.1094,201.375 299.75,201.5313 Q300.4063,201.6875 300.9688,201.9844 L300.9688,204.7031 Q300.3438,204.125 299.75,203.8594 Q299.1563,203.5781 298.5313,203.5781 Q297.1875,203.5781 296.5,204.6563 Q295.8125,205.7188 295.8125,207.8125 Q295.8125,209.9063 296.5,210.9844 Q297.1875,212.0469 298.5313,212.0469 Q299.1563,212.0469 299.75,211.7813 Q300.3438,211.5 300.9688,210.9219 L300.9688,213.6406 Z " fill="#000000"/><text fill="#000000" font-family="sans-serif" font-size="14" lengthAdjust="spacing" textLength="116" x="312" y="212.8467">android_daemon</text><line style="stroke:#181818;stroke-width:0.5;" x1="284" x2="430" y1="224" y2="224"/><line style="stroke:#181818;stroke-width:0.5;" x1="284" x2="430" y1="232" y2="232"/></g><!--class datastore--><g id="elem_datastore"><rect codeLine="21" fill="#F1F1F1" height="48" id="datastore" rx="2.5" ry="2.5" style="stroke:#181818;stroke-width:0.5;" width="98" x="215" y="339"/><ellipse cx="230" cy="355" fill="#ADD1B2" rx="11" ry="11" style="stroke:#181818;stroke-width:1.0;"/><path d="M232.9688,360.6406 Q232.3906,360.9375 231.75,361.0781 Q231.1094,361.2344 230.4063,361.2344 Q227.9063,361.2344 226.5781,359.5938 Q225.2656,357.9375 225.2656,354.8125 Q225.2656,351.6875 226.5781,350.0313 Q227.9063,348.375 230.4063,348.375 Q231.1094,348.375 231.75,348.5313 Q232.4063,348.6875 232.9688,348.9844 L232.9688,351.7031 Q232.3438,351.125 231.75,350.8594 Q231.1563,350.5781 230.5313,350.5781 Q229.1875,350.5781 228.5,351.6563 Q227.8125,352.7188 227.8125,354.8125 Q227.8125,356.9063 228.5,357.9844 Q229.1875,359.0469 230.5313,359.0469 Q231.1563,359.0469 231.75,358.7813 Q232.3438,358.5 232.9688,357.9219 L232.9688,360.6406 Z " fill="#000000"/><text fill="#000000" font-family="sans-serif" font-size="14" lengthAdjust="spacing" textLength="66" x="244" y="359.8467">datastore</text><line style="stroke:#181818;stroke-width:0.5;" x1="216" x2="312" y1="371" y2="371"/><line style="stroke:#181818;stroke-width:0.5;" x1="216" x2="312" y1="379" y2="379"/></g><!--link pc_cli to pc_daemon--><g id="link_pc_cli_pc_daemon"><path codeLine="25" d="M100.75,132.26 C115.76,149.94 132.4158,169.557 147.4158,187.217 " fill="none" id="pc_cli-to-pc_daemon" style="stroke:#181818;stroke-width:1.0;"/><polygon fill="#181818" points="151.3,191.79,148.5223,182.3409,148.0631,187.9791,142.425,187.5199,151.3,191.79" style="stroke:#181818;stroke-width:1.0;"/></g><!--link pc_gui to pc_daemon--><g id="link_pc_gui_pc_daemon"><path codeLine="26" d="M185.05,132.26 C182.05,149.94 178.9449,168.2147 175.9449,185.8747 " fill="none" id="pc_gui-to-pc_daemon" style="stroke:#181818;stroke-width:1.0;"/><polygon fill="#181818" points="174.94,191.79,180.3908,183.587,175.7774,186.8606,172.5038,182.2472,174.94,191.79" style="stroke:#181818;stroke-width:1.0;"/></g><!--link android_gui to android_daemon--><g id="link_android_gui_android_daemon"><path codeLine="27" d="M357,132.26 C357,149.94 357,168.13 357,185.79 " fill="none" id="android_gui-to-android_daemon" style="stroke:#181818;stroke-width:1.0;"/><polygon fill="#181818" points="357,191.79,361,182.79,357,186.79,353,182.79,357,191.79" style="stroke:#181818;stroke-width:1.0;"/></g><!--link pc_daemon to datastore--><g id="link_pc_daemon_datastore"><path codeLine="29" d="M185.94,240.3 C203.3,267.36 228.5203,306.6798 245.8603,333.7098 " fill="none" id="pc_daemon-to-datastore" style="stroke:#181818;stroke-width:1.0;"/><polygon fill="#181818" points="249.1,338.76,247.6072,329.0249,246.4002,334.5515,240.8736,333.3446,249.1,338.76" style="stroke:#181818;stroke-width:1.0;"/></g><!--link android_daemon to datastore--><g id="link_android_daemon_datastore"><path codeLine="30" d="M342.06,240.3 C324.7,267.36 299.4797,306.6798 282.1397,333.7098 " fill="none" id="android_daemon-to-datastore" style="stroke:#181818;stroke-width:1.0;"/><polygon fill="#181818" points="278.9,338.76,287.1264,333.3446,281.5998,334.5515,280.3928,329.0249,278.9,338.76" style="stroke:#181818;stroke-width:1.0;"/></g></g></svg>