<svg xmlns="http://www.w3.org/2000/svg" xmlns:xlink="http://www.w3.org/1999/xlink" contentStyleType="text/css" height="842px" preserveAspectRatio="none" style="width:492px;height:842px;background:#FFFFFF;" version="1.1" viewBox="0 0 492 842" width="492px" zoomAndPan="magnify"><defs/><g><rect fill="none" height="485.0625" style="stroke:#000000;stroke-width:1.5;" width="357" x="128" y="153.6953"/><line style="stroke:#181818;stroke-width:0.5;stroke-dasharray:5.0,5.0;" x1="30" x2="30" y1="36.2969" y2="835.5547"/><line style="stroke:#181818;stroke-width:0.5;stroke-dasharray:5.0,5.0;" x1="173" x2="173" y1="36.2969" y2="835.5547"/><line style="stroke:#181818;stroke-width:0.5;stroke-dasharray:5.0,5.0;" x1="326.5" x2="326.5" y1="36.2969" y2="835.5547"/><rect fill="#E2E2F0" height="30.2969" rx="2.5" ry="2.5" style="stroke:#181818;stroke-width:0.5;" width="51" x="5" y="5"/><text fill="#000000" font-family="sans-serif" font-size="14" lengthAdjust="spacing" textLength="37" x="12" y="24.9951">client</text><rect fill="#E2E2F0" height="30.2969" rx="2.5" ry="2.5" style="stroke:#181818;stroke-width:0.5;" width="71" x="138" y="5"/><text fill="#000000" font-family="sans-serif" font-size="14" lengthAdjust="spacing" textLength="57" x="145" y="24.9951">daemon</text><rect fill="#E2E2F0" height="30.2969" rx="2.5" ry="2.5" style="stroke:#181818;stroke-width:0.5;" width="80" x="286.5" y="5"/><text fill="#000000" font-family="sans-serif" font-size="14" lengthAdjust="spacing" textLength="66" x="293.5" y="24.9951">datastore</text><polygon fill="#181818" points="161.5,63.4297,171.5,67.4297,161.5,71.4297,165.5,67.4297" style="stroke:#181818;stroke-width:1.0;"/><line style="stroke:#181818;stroke-width:1.0;" x1="30.5" x2="167.5" y1="67.4297" y2="67.4297"/><text fill="#000000" font-family="sans-serif" font-size="13" lengthAdjust="spacing" textLength="119" x="37.5" y="62.3638">send(command-1)</text><line style="stroke:#181818;stroke-width:1.0;" x1="173.5" x2="215.5" y1="96.5625" y2="96.5625"/><line style="stroke:#181818;stroke-width:1.0;" x1="215.5" x2="215.5" y1="96.5625" y2="109.5625"/><line style="stroke:#181818;stroke-width:1.0;" x1="174.5" x2="215.5" y1="109.5625" y2="109.5625"/><polygon fill="#181818" points="184.5,105.5625,174.5,109.5625,184.5,113.5625,180.5,109.5625" style="stroke:#181818;stroke-width:1.0;"/><text fill="#000000" font-family="sans-serif" font-size="13" lengthAdjust="spacing" textLength="120" x="180.5" y="91.4966">cache command-1</text><polygon fill="#181818" points="41.5,134.6953,31.5,138.6953,41.5,142.6953,37.5,138.6953" style="stroke:#181818;stroke-width:1.0;"/><line style="stroke:#181818;stroke-width:1.0;" x1="35.5" x2="172.5" y1="138.6953" y2="138.6953"/><text fill="#000000" font-family="sans-serif" font-size="13" lengthAdjust="spacing" textLength="15" x="47.5" y="133.6294">ok</text><path d="M128,153.6953 L192,153.6953 L192,160.8281 L182,170.8281 L128,170.8281 L128,153.6953 " fill="#EEEEEE" style="stroke:#000000;stroke-width:1.5;"/><rect fill="none" height="485.0625" style="stroke:#000000;stroke-width:1.5;" width="357" x="128" y="153.6953"/><text fill="#000000" font-family="sans-serif" font-size="13" font-weight="bold" lengthAdjust="spacing" textLength="19" x="143" y="166.7622">alt</text><text fill="#000000" font-family="sans-serif" font-size="11" font-weight="bold" lengthAdjust="spacing" textLength="120" x="207" y="165.9058">[daemon is online]</text><path d="M178,175.8281 L178,200.8281 L336,200.8281 L336,185.8281 L326,175.8281 L178,175.8281 " fill="#FEFFDD" style="stroke:#181818;stroke-width:0.5;"/><path d="M326,175.8281 L326,185.8281 L336,185.8281 L326,175.8281 " fill="#FEFFDD" style="stroke:#181818;stroke-width:0.5;"/><text fill="#000000" font-family="sans-serif" font-size="13" lengthAdjust="spacing" textLength="137" x="184" y="192.895">proceed on goroutine</text><polygon fill="#181818" points="314.5,223.0938,324.5,227.0938,314.5,231.0938,318.5,227.0938" style="stroke:#181818;stroke-width:1.0;"/><line style="stroke:#181818;stroke-width:1.0;" x1="173.5" x2="320.5" y1="227.0938" y2="227.0938"/><text fill="#000000" font-family="sans-serif" font-size="13" lengthAdjust="spacing" textLength="119" x="180.5" y="222.0278">send(command-1)</text><line style="stroke:#181818;stroke-width:1.0;" x1="326.5" x2="368.5" y1="256.2266" y2="256.2266"/><line style="stroke:#181818;stroke-width:1.0;" x1="368.5" x2="368.5" y1="256.2266" y2="269.2266"/><line style="stroke:#181818;stroke-width:1.0;" x1="327.5" x2="368.5" y1="269.2266" y2="269.2266"/><polygon fill="#181818" points="337.5,265.2266,327.5,269.2266,337.5,273.2266,333.5,269.2266" style="stroke:#181818;stroke-width:1.0;"/><text fill="#000000" font-family="sans-serif" font-size="13" lengthAdjust="spacing" textLength="122" x="333.5" y="251.1606">apply(command-1)</text><polygon fill="#181818" points="184.5,294.3594,174.5,298.3594,184.5,302.3594,180.5,298.3594" style="stroke:#181818;stroke-width:1.0;"/><line style="stroke:#181818;stroke-width:1.0;" x1="178.5" x2="325.5" y1="298.3594" y2="298.3594"/><text fill="#000000" font-family="sans-serif" font-size="13" lengthAdjust="spacing" textLength="15" x="190.5" y="293.2935">ok</text><path d="M331,311.3594 L331,351.3594 L475,351.3594 L475,321.3594 L465,311.3594 L331,311.3594 " fill="#FEFFDD" style="stroke:#181818;stroke-width:0.5;"/><path d="M465,311.3594 L465,321.3594 L475,321.3594 L465,311.3594 " fill="#FEFFDD" style="stroke:#181818;stroke-width:0.5;"/><text fill="#000000" font-family="sans-serif" font-size="13" lengthAdjust="spacing" textLength="105" x="337" y="328.4263">send notification</text><text fill="#000000" font-family="sans-serif" font-size="13" lengthAdjust="spacing" textLength="119" x="341" y="343.5591">because of update</text><polygon fill="#181818" points="184.5,373.7578,174.5,377.7578,184.5,381.7578,180.5,377.7578" style="stroke:#181818;stroke-width:1.0;"/><line style="stroke:#181818;stroke-width:1.0;" x1="178.5" x2="325.5" y1="377.7578" y2="377.7578"/><text fill="#000000" font-family="sans-serif" font-size="13" lengthAdjust="spacing" textLength="35" x="190.5" y="372.6919">notify</text><path d="M178,390.7578 L178,430.7578 L304,430.7578 L304,400.7578 L294,390.7578 L178,390.7578 " fill="#FEFFDD" style="stroke:#181818;stroke-width:0.5;"/><path d="M294,390.7578 L294,400.7578 L304,400.7578 L294,390.7578 " fill="#FEFFDD" style="stroke:#181818;stroke-width:0.5;"/><text fill="#000000" font-family="sans-serif" font-size="13" lengthAdjust="spacing" textLength="105" x="184" y="407.8247">fetch latest data</text><text fill="#000000" font-family="sans-serif" font-size="13" lengthAdjust="spacing" textLength="96" x="188" y="422.9575">from datastore</text><polygon fill="#181818" points="314.5,453.1563,324.5,457.1563,314.5,461.1563,318.5,457.1563" style="stroke:#181818;stroke-width:1.0;"/><line style="stroke:#181818;stroke-width:1.0;" x1="173.5" x2="320.5" y1="457.1563" y2="457.1563"/><text fill="#000000" font-family="sans-serif" font-size="13" lengthAdjust="spacing" textLength="101" x="180.5" y="452.0903">fetch(10 weeks)</text><polygon fill="#181818" points="184.5,482.2891,174.5,486.2891,184.5,490.2891,180.5,486.2891" style="stroke:#181818;stroke-width:1.0;"/><line style="stroke:#181818;stroke-width:1.0;" x1="178.5" x2="325.5" y1="486.2891" y2="486.2891"/><text fill="#000000" font-family="sans-serif" font-size="13" lengthAdjust="spacing" textLength="87" x="190.5" y="481.2231">chunk of data</text><line style="stroke:#181818;stroke-width:1.0;" x1="173.5" x2="215.5" y1="530.5547" y2="530.5547"/><line style="stroke:#181818;stroke-width:1.0;" x1="215.5" x2="215.5" y1="530.5547" y2="543.5547"/><line style="stroke:#181818;stroke-width:1.0;" x1="174.5" x2="215.5" y1="543.5547" y2="543.5547"/><polygon fill="#181818" points="184.5,539.5547,174.5,543.5547,184.5,547.5547,180.5,543.5547" style="stroke:#181818;stroke-width:1.0;"/><text fill="#000000" font-family="sans-serif" font-size="13" lengthAdjust="spacing" textLength="84" x="180.5" y="510.356">apply data to</text><text fill="#000000" font-family="sans-serif" font-size="13" lengthAdjust="spacing" textLength="135" x="184.5" y="525.4888">local document store</text><line style="stroke:#000000;stroke-width:1.0;stroke-dasharray:2.0,2.0;" x1="128" x2="485" y1="552.5547" y2="552.5547"/><text fill="#000000" font-family="sans-serif" font-size="11" font-weight="bold" lengthAdjust="spacing" textLength="122" x="133" y="562.7651">[daemon is offline]</text><line style="stroke:#181818;stroke-width:1.0;" x1="173.5" x2="215.5" y1="617.7578" y2="617.7578"/><line style="stroke:#181818;stroke-width:1.0;" x1="215.5" x2="215.5" y1="617.7578" y2="630.7578"/><line style="stroke:#181818;stroke-width:1.0;" x1="174.5" x2="215.5" y1="630.7578" y2="630.7578"/><polygon fill="#181818" points="184.5,626.7578,174.5,630.7578,184.5,634.7578,180.5,630.7578" style="stroke:#181818;stroke-width:1.0;"/><text fill="#000000" font-family="sans-serif" font-size="13" lengthAdjust="spacing" textLength="84" x="180.5" y="582.4263">apply data to</text><text fill="#000000" font-family="sans-serif" font-size="13" lengthAdjust="spacing" textLength="135" x="184.5" y="597.5591">local document store</text><text fill="#000000" font-family="sans-serif" font-size="13" lengthAdjust="spacing" textLength="86" x="184.5" y="612.6919">(using cache)</text><path d="M178,650.7578 L178,690.7578 L322,690.7578 L322,660.7578 L312,650.7578 L178,650.7578 " fill="#FEFFDD" style="stroke:#181818;stroke-width:0.5;"/><path d="M312,650.7578 L312,660.7578 L322,660.7578 L312,650.7578 " fill="#FEFFDD" style="stroke:#181818;stroke-width:0.5;"/><text fill="#000000" font-family="sans-serif" font-size="13" lengthAdjust="spacing" textLength="105" x="184" y="667.8247">send notification</text><text fill="#000000" font-family="sans-serif" font-size="13" lengthAdjust="spacing" textLength="119" x="188" y="682.9575">because of update</text><polygon fill="#181818" points="41.5,713.1563,31.5,717.1563,41.5,721.1563,37.5,717.1563" style="stroke:#181818;stroke-width:1.0;"/><line style="stroke:#181818;stroke-width:1.0;" x1="35.5" x2="172.5" y1="717.1563" y2="717.1563"/><text fill="#000000" font-family="sans-serif" font-size="13" lengthAdjust="spacing" textLength="35" x="47.5" y="712.0903">notify</text><polygon fill="#181818" points="161.5,742.2891,171.5,746.2891,161.5,750.2891,165.5,746.2891" style="stroke:#181818;stroke-width:1.0;"/><line style="stroke:#181818;stroke-width:1.0;" x1="30.5" x2="167.5" y1="746.2891" y2="746.2891"/><text fill="#000000" font-family="sans-serif" font-size="13" lengthAdjust="spacing" textLength="101" x="37.5" y="741.2231">fetch(10 weeks)</text><polygon fill="#181818" points="41.5,771.4219,31.5,775.4219,41.5,779.4219,37.5,775.4219" style="stroke:#181818;stroke-width:1.0;"/><line style="stroke:#181818;stroke-width:1.0;" x1="35.5" x2="172.5" y1="775.4219" y2="775.4219"/><text fill="#000000" font-family="sans-serif" font-size="13" lengthAdjust="spacing" textLength="87" x="47.5" y="770.356">chunk of data</text><line style="stroke:#181818;stroke-width:1.0;" x1="30.5" x2="72.5" y1="804.5547" y2="804.5547"/><line style="stroke:#181818;stroke-width:1.0;" x1="72.5" x2="72.5" y1="804.5547" y2="817.5547"/><line style="stroke:#181818;stroke-width:1.0;" x1="31.5" x2="72.5" y1="817.5547" y2="817.5547"/><polygon fill="#181818" points="41.5,813.5547,31.5,817.5547,41.5,821.5547,37.5,817.5547" style="stroke:#181818;stroke-width:1.0;"/><text fill="#000000" font-family="sans-serif" font-size="13" lengthAdjust="spacing" textLength="75" x="37.5" y="799.4888">render data</text></g></svg>