<svg xmlns="http://www.w3.org/2000/svg" xmlns:xlink="http://www.w3.org/1999/xlink" contentStyleType="text/css" height="406px" preserveAspectRatio="none" style="width:317px;height:406px;background:#FFFFFF;" version="1.1" viewBox="0 0 317 406" width="317px" zoomAndPan="magnify"><defs/><g><!--class task--><g id="elem_task"><rect codeLine="2" fill="#F1F1F1" height="129.4844" id="task" rx="2.5" ry="2.5" style="stroke:#181818;stroke-width:0.5;" width="87" x="79" y="7"/><ellipse cx="105.7" cy="23" fill="#ADD1B2" rx="11" ry="11" style="stroke:#181818;stroke-width:1.0;"/><path d="M109.8094,29 L102.0906,29 L102.0906,16.6094 L109.8094,16.6094 L109.8094,18.7656 L104.5438,18.7656 L104.5438,21.4375 L109.3094,21.4375 L109.3094,23.5938 L104.5438,23.5938 L104.5438,26.8438 L109.8094,26.8438 L109.8094,29 Z " fill="#000000"/><text fill="#000000" font-family="sans-serif" font-size="14" lengthAdjust="spacing" textLength="29" x="122.3" y="27.8467">task</text><line style="stroke:#181818;stroke-width:0.5;" x1="80" x2="165" y1="39" y2="39"/><ellipse cx="90" cy="52.6484" fill="none" rx="3" ry="3" style="stroke:#038048;stroke-width:1.0;"/><text fill="#000000" font-family="sans-serif" font-size="14" lengthAdjust="spacing" textLength="48" x="99" y="55.9951">task_id</text><line style="stroke:#181818;stroke-width:1.0;" x1="80" x2="165" y1="63.2969" y2="63.2969"/><text fill="#000000" font-family="sans-serif" font-size="14" lengthAdjust="spacing" textLength="75" x="85" y="80.292">task_name</text><text fill="#000000" font-family="sans-serif" font-size="14" lengthAdjust="spacing" textLength="62" x="85" y="96.5889">status_id</text><text fill="#000000" font-family="sans-serif" font-size="14" lengthAdjust="spacing" textLength="51" x="85" y="112.8857">label_id</text><text fill="#000000" font-family="sans-serif" font-size="14" lengthAdjust="spacing" textLength="56" x="85" y="129.1826">done_at</text></g><!--class status--><g id="elem_status"><rect codeLine="11" fill="#F1F1F1" height="80.5938" id="status" rx="2.5" ry="2.5" style="stroke:#181818;stroke-width:0.5;" width="101" x="7" y="318.49"/><ellipse cx="33.7" cy="334.49" fill="#ADD1B2" rx="11" ry="11" style="stroke:#181818;stroke-width:1.0;"/><path d="M37.8094,340.49 L30.0906,340.49 L30.0906,328.0994 L37.8094,328.0994 L37.8094,330.2556 L32.5438,330.2556 L32.5438,332.9275 L37.3094,332.9275 L37.3094,335.0837 L32.5438,335.0837 L32.5438,338.3337 L37.8094,338.3337 L37.8094,340.49 Z " fill="#000000"/><text fill="#000000" font-family="sans-serif" font-size="14" lengthAdjust="spacing" textLength="43" x="50.3" y="339.3367">status</text><line style="stroke:#181818;stroke-width:0.5;" x1="8" x2="107" y1="350.49" y2="350.49"/><ellipse cx="18" cy="364.1384" fill="none" rx="3" ry="3" style="stroke:#038048;stroke-width:1.0;"/><text fill="#000000" font-family="sans-serif" font-size="14" lengthAdjust="spacing" textLength="62" x="27" y="367.4851">status_id</text><line style="stroke:#181818;stroke-width:1.0;" x1="8" x2="107" y1="374.7869" y2="374.7869"/><text fill="#000000" font-family="sans-serif" font-size="14" lengthAdjust="spacing" textLength="89" x="13" y="391.782">status_name</text></g><!--class consume--><g id="elem_consume"><rect codeLine="17" fill="#F1F1F1" height="129.4844" id="consume" rx="2.5" ry="2.5" style="stroke:#181818;stroke-width:0.5;" width="110" x="200.5" y="7"/><ellipse cx="221.35" cy="23" fill="#ADD1B2" rx="11" ry="11" style="stroke:#181818;stroke-width:1.0;"/><path d="M225.4594,29 L217.7406,29 L217.7406,16.6094 L225.4594,16.6094 L225.4594,18.7656 L220.1938,18.7656 L220.1938,21.4375 L224.9594,21.4375 L224.9594,23.5938 L220.1938,23.5938 L220.1938,26.8438 L225.4594,26.8438 L225.4594,29 Z " fill="#000000"/><text fill="#000000" font-family="sans-serif" font-size="14" lengthAdjust="spacing" textLength="65" x="236.65" y="27.8467">consume</text><line style="stroke:#181818;stroke-width:0.5;" x1="201.5" x2="309.5" y1="39" y2="39"/><ellipse cx="211.5" cy="52.6484" fill="none" rx="3" ry="3" style="stroke:#038048;stroke-width:1.0;"/><text fill="#000000" font-family="sans-serif" font-size="14" lengthAdjust="spacing" textLength="84" x="220.5" y="55.9951">consume_id</text><line style="stroke:#181818;stroke-width:1.0;" x1="201.5" x2="309.5" y1="63.2969" y2="63.2969"/><text fill="#000000" font-family="sans-serif" font-size="14" lengthAdjust="spacing" textLength="48" x="206.5" y="80.292">task_id</text><text fill="#000000" font-family="sans-serif" font-size="14" lengthAdjust="spacing" textLength="69" x="206.5" y="96.5889">started_at</text><text fill="#000000" font-family="sans-serif" font-size="14" lengthAdjust="spacing" textLength="74" x="206.5" y="112.8857">finished_at</text><text fill="#000000" font-family="sans-serif" font-size="14" lengthAdjust="spacing" textLength="74" x="206.5" y="129.1826">consumed</text></g><!--class label--><g id="elem_label"><rect codeLine="26" fill="#F1F1F1" height="80.5938" id="label" rx="2.5" ry="2.5" style="stroke:#181818;stroke-width:0.5;" width="90" x="143.5" y="318.49"/><ellipse cx="170.2" cy="334.49" fill="#ADD1B2" rx="11" ry="11" style="stroke:#181818;stroke-width:1.0;"/><path d="M174.3094,340.49 L166.5906,340.49 L166.5906,328.0994 L174.3094,328.0994 L174.3094,330.2556 L169.0438,330.2556 L169.0438,332.9275 L173.8094,332.9275 L173.8094,335.0837 L169.0438,335.0837 L169.0438,338.3337 L174.3094,338.3337 L174.3094,340.49 Z " fill="#000000"/><text fill="#000000" font-family="sans-serif" font-size="14" lengthAdjust="spacing" textLength="32" x="186.8" y="339.3367">label</text><line style="stroke:#181818;stroke-width:0.5;" x1="144.5" x2="232.5" y1="350.49" y2="350.49"/><ellipse cx="154.5" cy="364.1384" fill="none" rx="3" ry="3" style="stroke:#038048;stroke-width:1.0;"/><text fill="#000000" font-family="sans-serif" font-size="14" lengthAdjust="spacing" textLength="51" x="163.5" y="367.4851">label_id</text><line style="stroke:#181818;stroke-width:1.0;" x1="144.5" x2="232.5" y1="374.7869" y2="374.7869"/><text fill="#000000" font-family="sans-serif" font-size="14" lengthAdjust="spacing" textLength="78" x="149.5" y="391.782">label_name</text></g><!--reverse link task to status--><g id="link_task_status"><path codeLine="32" d="M106.1314,144.5098 C93.4414,200.1598 77.24,271.23 66.53,318.18 " fill="none" id="task-backto-status" style="stroke:#181818;stroke-width:1.0;"/><line style="stroke:#181818;stroke-width:1.0;" x1="106.1314" x2="100.1102" y1="144.5098" y2="136.71"/><line style="stroke:#181818;stroke-width:1.0;" x1="106.1314" x2="115.7098" y1="144.5098" y2="136.71"/><line style="stroke:#181818;stroke-width:1.0;" x1="106.1314" x2="107.91" y1="144.5098" y2="136.71"/></g><!--reverse link task to label--><g id="link_task_label"><path codeLine="33" d="M139.1152,144.5037 C152.0052,200.1537 168.46,271.23 179.33,318.18 " fill="none" id="task-backto-label" style="stroke:#181818;stroke-width:1.0;"/><line style="stroke:#181818;stroke-width:1.0;" x1="139.1152" x2="129.5163" y1="144.5037" y2="136.71"/><line style="stroke:#181818;stroke-width:1.0;" x1="139.1152" x2="145.1037" y1="144.5037" y2="136.71"/><line style="stroke:#181818;stroke-width:1.0;" x1="139.1152" x2="137.31" y1="144.5037" y2="136.71"/></g><!--link task to consume--><g id="link_task_consume"><path codeLine="34" d="M166.4,71.74 C177.65,71.74 180.91,71.74 192.16,71.74 " fill="none" id="task-to-consume" style="stroke:#181818;stroke-width:1.0;"/><line style="stroke:#181818;stroke-width:1.0;" x1="192.16" x2="200.16" y1="71.74" y2="63.74"/><line style="stroke:#181818;stroke-width:1.0;" x1="192.16" x2="200.16" y1="71.74" y2="79.74"/><line style="stroke:#181818;stroke-width:1.0;" x1="192.16" x2="200.16" y1="71.74" y2="71.74"/></g></g></svg>