<?xml version="1.0" encoding="UTF-8" standalone="no"?><svg xmlns="http://www.w3.org/2000/svg" xmlns:xlink="http://www.w3.org/1999/xlink" contentScriptType="application/ecmascript" contentStyleType="text/css" height="313px" preserveAspectRatio="none" style="width:273px;height:313px;" version="1.1" viewBox="0 0 273 313" width="273px" zoomAndPan="magnify"><defs><filter height="300%" id="f2dremf3s0s4n" width="300%" x="-1" y="-1"><feGaussianBlur result="blurOut" stdDeviation="2.0"/><feColorMatrix in="blurOut" result="blurOut2" type="matrix" values="0 0 0 0 0 0 0 0 0 0 0 0 0 0 0 0 0 0 .4 0"/><feOffset dx="4.0" dy="4.0" in="blurOut2" result="blurOut3"/><feBlend in="SourceGraphic" in2="blurOut3" mode="normal"/></filter></defs><g><!--class task--><rect fill="#FEFECE" filter="url(#f2dremf3s0s4n)" height="103" id="task" style="stroke: #A80036; stroke-width: 1.5;" width="78" x="63" y="8"/><ellipse cx="87.9" cy="24" fill="#ADD1B2" rx="11" ry="11" style="stroke: #A80036; stroke-width: 1.0;"/><path d="M84.0875,18.0469 L90.7438,18.0469 L90.7438,20.0313 L86.1344,20.0313 L86.1344,23.125 L90.1344,23.125 L90.1344,25.0781 L86.1344,25.0781 L86.1344,28.6563 L91.0875,28.6563 L91.0875,30.6406 L84.0875,30.6406 L84.0875,18.0469 Z "/><text fill="#000000" font-family="sans-serif" font-size="12" lengthAdjust="spacingAndGlyphs" textLength="24" x="104.1" y="28.5586">task</text><line style="stroke: #A80036; stroke-width: 1.5;" x1="64" x2="140" y1="40" y2="40"/><ellipse cx="74" cy="51" fill="none" rx="3" ry="3" style="stroke: #038048; stroke-width: 1.0;"/><text fill="#000000" font-family="sans-serif" font-size="11" lengthAdjust="spacingAndGlyphs" textLength="42" x="83" y="53.6787">task_id</text><line style="stroke: #A80036; stroke-width: 1.0;" x1="64" x2="140" y1="59" y2="59"/><text fill="#000000" font-family="sans-serif" font-size="11" lengthAdjust="spacingAndGlyphs" textLength="54" x="69" y="72.6787">task_name</text><text fill="#000000" font-family="sans-serif" font-size="11" lengthAdjust="spacingAndGlyphs" textLength="54" x="69" y="83.6787">status_id</text><text fill="#000000" font-family="sans-serif" font-size="11" lengthAdjust="spacingAndGlyphs" textLength="48" x="69" y="94.6787">label_id</text><text fill="#000000" font-family="sans-serif" font-size="11" lengthAdjust="spacingAndGlyphs" textLength="66" x="69" y="105.6787">finished_at</text><!--class status--><rect fill="#FEFECE" filter="url(#f2dremf3s0s4n)" height="70" id="status" style="stroke: #A80036; stroke-width: 1.5;" width="80" x="6" y="232"/><ellipse cx="26.4" cy="248" fill="#ADD1B2" rx="11" ry="11" style="stroke: #A80036; stroke-width: 1.0;"/><path d="M22.5875,242.0469 L29.2438,242.0469 L29.2438,244.0313 L24.6344,244.0313 L24.6344,247.125 L28.6344,247.125 L28.6344,249.0781 L24.6344,249.0781 L24.6344,252.6563 L29.5875,252.6563 L29.5875,254.6406 L22.5875,254.6406 L22.5875,242.0469 Z "/><text fill="#000000" font-family="sans-serif" font-size="12" lengthAdjust="spacingAndGlyphs" textLength="36" x="41.6" y="252.5586">status</text><line style="stroke: #A80036; stroke-width: 1.5;" x1="7" x2="85" y1="264" y2="264"/><ellipse cx="17" cy="275" fill="none" rx="3" ry="3" style="stroke: #038048; stroke-width: 1.0;"/><text fill="#000000" font-family="sans-serif" font-size="11" lengthAdjust="spacingAndGlyphs" textLength="54" x="26" y="277.6787">status_id</text><line style="stroke: #A80036; stroke-width: 1.0;" x1="7" x2="85" y1="283" y2="283"/><text fill="#000000" font-family="sans-serif" font-size="11" lengthAdjust="spacingAndGlyphs" textLength="66" x="12" y="296.6787">status_name</text><!--class consume--><rect fill="#FEFECE" filter="url(#f2dremf3s0s4n)" height="103" id="consume" style="stroke: #A80036; stroke-width: 1.5;" width="86" x="176" y="8"/><ellipse cx="196.4" cy="24" fill="#ADD1B2" rx="11" ry="11" style="stroke: #A80036; stroke-width: 1.0;"/><path d="M192.5875,18.0469 L199.2438,18.0469 L199.2438,20.0313 L194.6344,20.0313 L194.6344,23.125 L198.6344,23.125 L198.6344,25.0781 L194.6344,25.0781 L194.6344,28.6563 L199.5875,28.6563 L199.5875,30.6406 L192.5875,30.6406 L192.5875,18.0469 Z "/><text fill="#000000" font-family="sans-serif" font-size="12" lengthAdjust="spacingAndGlyphs" textLength="42" x="211.6" y="28.5586">consume</text><line style="stroke: #A80036; stroke-width: 1.5;" x1="177" x2="261" y1="40" y2="40"/><ellipse cx="187" cy="51" fill="none" rx="3" ry="3" style="stroke: #038048; stroke-width: 1.0;"/><text fill="#000000" font-family="sans-serif" font-size="11" lengthAdjust="spacingAndGlyphs" textLength="60" x="196" y="53.6787">consume_id</text><line style="stroke: #A80036; stroke-width: 1.0;" x1="177" x2="261" y1="59" y2="59"/><text fill="#000000" font-family="sans-serif" font-size="11" lengthAdjust="spacingAndGlyphs" textLength="42" x="182" y="72.6787">task_id</text><text fill="#000000" font-family="sans-serif" font-size="11" lengthAdjust="spacingAndGlyphs" textLength="60" x="182" y="83.6787">started_at</text><text fill="#000000" font-family="sans-serif" font-size="11" lengthAdjust="spacingAndGlyphs" textLength="66" x="182" y="94.6787">finished_at</text><text fill="#000000" font-family="sans-serif" font-size="11" lengthAdjust="spacingAndGlyphs" textLength="48" x="182" y="105.6787">consumed</text><!--class label--><rect fill="#FEFECE" filter="url(#f2dremf3s0s4n)" height="70" id="label" style="stroke: #A80036; stroke-width: 1.5;" width="74" x="121" y="232"/><ellipse cx="141.4" cy="248" fill="#ADD1B2" rx="11" ry="11" style="stroke: #A80036; stroke-width: 1.0;"/><path d="M137.5875,242.0469 L144.2438,242.0469 L144.2438,244.0313 L139.6344,244.0313 L139.6344,247.125 L143.6344,247.125 L143.6344,249.0781 L139.6344,249.0781 L139.6344,252.6563 L144.5875,252.6563 L144.5875,254.6406 L137.5875,254.6406 L137.5875,242.0469 Z "/><text fill="#000000" font-family="sans-serif" font-size="12" lengthAdjust="spacingAndGlyphs" textLength="30" x="156.6" y="252.5586">label</text><line style="stroke: #A80036; stroke-width: 1.5;" x1="122" x2="194" y1="264" y2="264"/><ellipse cx="132" cy="275" fill="none" rx="3" ry="3" style="stroke: #038048; stroke-width: 1.0;"/><text fill="#000000" font-family="sans-serif" font-size="11" lengthAdjust="spacingAndGlyphs" textLength="48" x="141" y="277.6787">label_id</text><line style="stroke: #A80036; stroke-width: 1.0;" x1="122" x2="194" y1="283" y2="283"/><text fill="#000000" font-family="sans-serif" font-size="11" lengthAdjust="spacingAndGlyphs" textLength="60" x="127" y="296.6787">label_name</text><!--link task to status--><path d="M88.0854,111.0587 C77.914,148.7472 64.3896,198.8601 55.4504,231.9829 " fill="none" id="task-status" style="stroke: #A80036; stroke-width: 1.0;"/><!--link task to label--><path d="M115.9146,111.0587 C126.086,148.7472 139.6104,198.8601 148.5496,231.9829 " fill="none" id="task-label" style="stroke: #A80036; stroke-width: 1.0;"/><!--link task to consume--><path d="M141.3047,59.5 C150.1346,59.5 158.9644,59.5 167.7943,59.5 " fill="none" id="task-consume" style="stroke: #A80036; stroke-width: 1.0;"/><line style="stroke: #A80036; stroke-width: 1.0;" x1="167.9034" x2="175.9034" y1="59.5" y2="51.5"/><line style="stroke: #A80036; stroke-width: 1.0;" x1="167.9034" x2="175.9034" y1="59.5" y2="67.5"/><line style="stroke: #A80036; stroke-width: 1.0;" x1="167.9034" x2="175.9034" y1="59.5" y2="59.5"/><!--
@startuml

entity task {
    + task_id
    - -
    task_name
    status_id
    label_id
    finished_at
}

entity status {
    + status_id
    - -
    status_name
}

entity consume {
  + consume_id
  - -
  task_id
  started_at
  finished_at
  consumed
}

entity label {
    + label_id
    - -
    label_name
}

task - - - status
task - - - label
task -ri-{ consume

@enduml

PlantUML version 1.2017.14(Mon Jun 05 18:56:32 JST 2017)
(GPL source distribution)
Java Runtime: OpenJDK Runtime Environment
JVM: OpenJDK 64-Bit Server VM
Java Version: 1.8.0_144-b01
Operating System: Linux
OS Version: 4.11.12-1-MANJARO
Default Encoding: UTF-8
Language: en
Country: US
--></g></svg>