<?xml version="1.0" encoding="UTF-8" standalone="no"?><svg xmlns="http://www.w3.org/2000/svg" xmlns:xlink="http://www.w3.org/1999/xlink" contentScriptType="application/ecmascript" contentStyleType="text/css" height="325px" preserveAspectRatio="none" style="width:283px;height:325px;" version="1.1" viewBox="0 0 283 325" width="283px" zoomAndPan="magnify"><defs><filter height="300%" id="f15xiew4shchp5" width="300%" x="-1" y="-1"><feGaussianBlur result="blurOut" stdDeviation="2.0"/><feColorMatrix in="blurOut" result="blurOut2" type="matrix" values="0 0 0 0 0 0 0 0 0 0 0 0 0 0 0 0 0 0 .4 0"/><feOffset dx="4.0" dy="4.0" in="blurOut2" result="blurOut3"/><feBlend in="SourceGraphic" in2="blurOut3" mode="normal"/></filter></defs><g><!--cluster local--><polygon fill="#FFFFFF" filter="url(#f15xiew4shchp5)" points="14,16,60,16,67,36,261,36,261,205,14,205,14,16" style="stroke: #000000; stroke-width: 2.0;"/><line style="stroke: #000000; stroke-width: 2.0;" x1="14" x2="67" y1="36" y2="36"/><text fill="#000000" font-family="sans-serif" font-size="14" font-weight="bold" lengthAdjust="spacingAndGlyphs" textLength="40" x="18" y="30.3184">local</text><!--cluster cloud--><polygon fill="#FFFFFF" filter="url(#f15xiew4shchp5)" points="74,232,120,232,127,252,200,252,200,313,74,313,74,232" style="stroke: #000000; stroke-width: 2.0;"/><line style="stroke: #000000; stroke-width: 2.0;" x1="74" x2="127" y1="252" y2="252"/><text fill="#000000" font-family="sans-serif" font-size="14" font-weight="bold" lengthAdjust="spacingAndGlyphs" textLength="40" x="78" y="246.3184">cloud</text><!--class hashira_cli--><rect fill="#FEFECE" filter="url(#f15xiew4shchp5)" height="48" id="hashira_cli" style="stroke: #A80036; stroke-width: 1.5;" width="98" x="155" y="41"/><ellipse cx="170" cy="57" fill="#ADD1B2" rx="11" ry="11" style="stroke: #A80036; stroke-width: 1.0;"/><path d="M173.3906,58.9844 Q172.9688,63.9688 169.6563,63.9688 Q167.7031,63.9688 166.6563,61.9688 Q165.7813,60.2969 165.7813,57.3594 Q165.7813,54.3438 166.75,52.5781 Q167.75,50.7031 169.6563,50.7031 Q172.6875,50.7031 173.3125,55.1406 L171.2344,55.1406 Q170.875,52.6719 169.6563,52.6719 Q167.9219,52.6719 167.9219,57.3594 Q167.9219,62 169.6719,62 Q171.1094,62 171.2656,58.9844 L173.3906,58.9844 Z "/><text fill="#000000" font-family="sans-serif" font-size="12" lengthAdjust="spacingAndGlyphs" textLength="66" x="184" y="61.5586">hashira_cli</text><line style="stroke: #A80036; stroke-width: 1.5;" x1="156" x2="252" y1="73" y2="73"/><line style="stroke: #A80036; stroke-width: 1.5;" x1="156" x2="252" y1="81" y2="81"/><!--class hashira_gui--><rect fill="#FEFECE" filter="url(#f15xiew4shchp5)" height="48" id="hashira_gui" style="stroke: #A80036; stroke-width: 1.5;" width="98" x="22" y="41"/><ellipse cx="37" cy="57" fill="#ADD1B2" rx="11" ry="11" style="stroke: #A80036; stroke-width: 1.0;"/><path d="M40.3906,58.9844 Q39.9688,63.9688 36.6563,63.9688 Q34.7031,63.9688 33.6563,61.9688 Q32.7813,60.2969 32.7813,57.3594 Q32.7813,54.3438 33.75,52.5781 Q34.75,50.7031 36.6563,50.7031 Q39.6875,50.7031 40.3125,55.1406 L38.2344,55.1406 Q37.875,52.6719 36.6563,52.6719 Q34.9219,52.6719 34.9219,57.3594 Q34.9219,62 36.6719,62 Q38.1094,62 38.2656,58.9844 L40.3906,58.9844 Z "/><text fill="#000000" font-family="sans-serif" font-size="12" lengthAdjust="spacingAndGlyphs" textLength="66" x="51" y="61.5586">hashira_gui</text><line style="stroke: #A80036; stroke-width: 1.5;" x1="23" x2="119" y1="73" y2="73"/><line style="stroke: #A80036; stroke-width: 1.5;" x1="23" x2="119" y1="81" y2="81"/><!--class hashira_daemon--><rect fill="#FEFECE" filter="url(#f15xiew4shchp5)" height="48" id="hashira_daemon" style="stroke: #A80036; stroke-width: 1.5;" width="116" x="79" y="149"/><ellipse cx="94" cy="165" fill="#ADD1B2" rx="11" ry="11" style="stroke: #A80036; stroke-width: 1.0;"/><path d="M97.3906,166.9844 Q96.9688,171.9688 93.6563,171.9688 Q91.7031,171.9688 90.6563,169.9688 Q89.7813,168.2969 89.7813,165.3594 Q89.7813,162.3438 90.75,160.5781 Q91.75,158.7031 93.6563,158.7031 Q96.6875,158.7031 97.3125,163.1406 L95.2344,163.1406 Q94.875,160.6719 93.6563,160.6719 Q91.9219,160.6719 91.9219,165.3594 Q91.9219,170 93.6719,170 Q95.1094,170 95.2656,166.9844 L97.3906,166.9844 Z "/><text fill="#000000" font-family="sans-serif" font-size="12" lengthAdjust="spacingAndGlyphs" textLength="84" x="108" y="169.5586">hashira_daemon</text><line style="stroke: #A80036; stroke-width: 1.5;" x1="80" x2="194" y1="181" y2="181"/><line style="stroke: #A80036; stroke-width: 1.5;" x1="80" x2="194" y1="189" y2="189"/><!--class hashira_store--><rect fill="#FEFECE" filter="url(#f15xiew4shchp5)" height="48" id="hashira_store" style="stroke: #A80036; stroke-width: 1.5;" width="110" x="82" y="257"/><ellipse cx="97" cy="273" fill="#ADD1B2" rx="11" ry="11" style="stroke: #A80036; stroke-width: 1.0;"/><path d="M100.3906,274.9844 Q99.9688,279.9688 96.6563,279.9688 Q94.7031,279.9688 93.6563,277.9688 Q92.7813,276.2969 92.7813,273.3594 Q92.7813,270.3438 93.75,268.5781 Q94.75,266.7031 96.6563,266.7031 Q99.6875,266.7031 100.3125,271.1406 L98.2344,271.1406 Q97.875,268.6719 96.6563,268.6719 Q94.9219,268.6719 94.9219,273.3594 Q94.9219,278 96.6719,278 Q98.1094,278 98.2656,274.9844 L100.3906,274.9844 Z "/><text fill="#000000" font-family="sans-serif" font-size="12" lengthAdjust="spacingAndGlyphs" textLength="78" x="111" y="277.5586">hashira_store</text><line style="stroke: #A80036; stroke-width: 1.5;" x1="83" x2="191" y1="289" y2="289"/><line style="stroke: #A80036; stroke-width: 1.5;" x1="83" x2="191" y1="297" y2="297"/><!--link hashira_cli to hashira_daemon--><path d="M188.9639,89.2373 C178.7916,105.6345 165.3162,127.356 154.637,144.5702 " fill="none" id="hashira_cli-hashira_daemon" style="stroke: #A80036; stroke-width: 1.0;"/><polygon fill="#A80036" points="151.9859,148.8436,160.1294,143.3044,154.6217,144.5948,153.3313,139.0871,151.9859,148.8436" style="stroke: #A80036; stroke-width: 1.0;"/><!--link hashira_gui to hashira_daemon--><path d="M85.8117,89.2373 C95.8322,105.6345 109.1065,127.356 119.6262,144.5702 " fill="none" id="hashira_gui-hashira_daemon" style="stroke: #A80036; stroke-width: 1.0;"/><polygon fill="#A80036" points="122.2377,148.8436,120.9577,139.0783,119.6304,144.5772,114.1315,143.2499,122.2377,148.8436" style="stroke: #A80036; stroke-width: 1.0;"/><!--link hashira_daemon to hashira_store--><path d="M137,197.2373 C137,213.3565 137,234.6212 137,251.6911 " fill="none" id="hashira_daemon-hashira_store" style="stroke: #A80036; stroke-width: 1.0;"/><polygon fill="#A80036" points="137,256.8436,141,247.8436,137,251.8436,133,247.8436,137,256.8436" style="stroke: #A80036; stroke-width: 1.0;"/><!--
@startuml

package local {
    class hashira_cli {
    }
    class hashira_gui {
    }
    class hashira_daemon {
    }
}

package cloud {
    class hashira_store {
    }
}

hashira_cli - -> hashira_daemon
hashira_gui - -> hashira_daemon
hashira_daemon - -> hashira_store

@enduml

PlantUML version 1.2017.14(Mon Jun 05 18:56:32 JST 2017)
(GPL source distribution)
Java Runtime: OpenJDK Runtime Environment
JVM: OpenJDK 64-Bit Server VM
Java Version: 1.8.0_144-b01
Operating System: Linux
OS Version: 4.11.12-1-MANJARO
Default Encoding: UTF-8
Language: en
Country: US
--></g></svg>