<?xml version="1.0" encoding="UTF-8" standalone="no"?><svg xmlns="http://www.w3.org/2000/svg" xmlns:xlink="http://www.w3.org/1999/xlink" contentScriptType="application/ecmascript" contentStyleType="text/css" height="325px" preserveAspectRatio="none" style="width:369px;height:325px;" version="1.1" viewBox="0 0 369 325" width="369px" zoomAndPan="magnify"><defs><filter height="300%" id="fhhzgxxvp6qe0" width="300%" x="-1" y="-1"><feGaussianBlur result="blurOut" stdDeviation="2.0"/><feColorMatrix in="blurOut" result="blurOut2" type="matrix" values="0 0 0 0 0 0 0 0 0 0 0 0 0 0 0 0 0 0 .4 0"/><feOffset dx="4.0" dy="4.0" in="blurOut2" result="blurOut3"/><feBlend in="SourceGraphic" in2="blurOut3" mode="normal"/></filter></defs><g><!--cluster pc--><polygon fill="#FFFFFF" filter="url(#fhhzgxxvp6qe0)" points="14,16,36,16,43,36,201,36,201,205,14,205,14,16" style="stroke: #000000; stroke-width: 2.0;"/><line style="stroke: #000000; stroke-width: 2.0;" x1="14" x2="43" y1="36" y2="36"/><text fill="#000000" font-family="sans-serif" font-size="14" font-weight="bold" lengthAdjust="spacingAndGlyphs" textLength="16" x="18" y="30.3184">pc</text><!--cluster android--><polygon fill="#FFFFFF" filter="url(#fhhzgxxvp6qe0)" points="215,16,277,16,284,36,347,36,347,205,215,205,215,16" style="stroke: #000000; stroke-width: 2.0;"/><line style="stroke: #000000; stroke-width: 2.0;" x1="215" x2="284" y1="36" y2="36"/><text fill="#000000" font-family="sans-serif" font-size="14" font-weight="bold" lengthAdjust="spacingAndGlyphs" textLength="56" x="219" y="30.3184">android</text><!--cluster cloud--><polygon fill="#FFFFFF" filter="url(#fhhzgxxvp6qe0)" points="150,232,196,232,203,252,276,252,276,313,150,313,150,232" style="stroke: #000000; stroke-width: 2.0;"/><line style="stroke: #000000; stroke-width: 2.0;" x1="150" x2="203" y1="252" y2="252"/><text fill="#000000" font-family="sans-serif" font-size="14" font-weight="bold" lengthAdjust="spacingAndGlyphs" textLength="40" x="154" y="246.3184">cloud</text><!--class pc_cli--><rect fill="#FEFECE" filter="url(#fhhzgxxvp6qe0)" height="48" id="pc_cli" style="stroke: #A80036; stroke-width: 1.5;" width="68" x="125" y="41"/><ellipse cx="140" cy="57" fill="#ADD1B2" rx="11" ry="11" style="stroke: #A80036; stroke-width: 1.0;"/><path d="M143.3906,58.9844 Q142.9688,63.9688 139.6563,63.9688 Q137.7031,63.9688 136.6563,61.9688 Q135.7813,60.2969 135.7813,57.3594 Q135.7813,54.3438 136.75,52.5781 Q137.75,50.7031 139.6563,50.7031 Q142.6875,50.7031 143.3125,55.1406 L141.2344,55.1406 Q140.875,52.6719 139.6563,52.6719 Q137.9219,52.6719 137.9219,57.3594 Q137.9219,62 139.6719,62 Q141.1094,62 141.2656,58.9844 L143.3906,58.9844 Z "/><text fill="#000000" font-family="sans-serif" font-size="12" lengthAdjust="spacingAndGlyphs" textLength="36" x="154" y="61.5586">pc_cli</text><line style="stroke: #A80036; stroke-width: 1.5;" x1="126" x2="192" y1="73" y2="73"/><line style="stroke: #A80036; stroke-width: 1.5;" x1="126" x2="192" y1="81" y2="81"/><!--class pc_gui--><rect fill="#FEFECE" filter="url(#fhhzgxxvp6qe0)" height="48" id="pc_gui" style="stroke: #A80036; stroke-width: 1.5;" width="68" x="22" y="41"/><ellipse cx="37" cy="57" fill="#ADD1B2" rx="11" ry="11" style="stroke: #A80036; stroke-width: 1.0;"/><path d="M40.3906,58.9844 Q39.9688,63.9688 36.6563,63.9688 Q34.7031,63.9688 33.6563,61.9688 Q32.7813,60.2969 32.7813,57.3594 Q32.7813,54.3438 33.75,52.5781 Q34.75,50.7031 36.6563,50.7031 Q39.6875,50.7031 40.3125,55.1406 L38.2344,55.1406 Q37.875,52.6719 36.6563,52.6719 Q34.9219,52.6719 34.9219,57.3594 Q34.9219,62 36.6719,62 Q38.1094,62 38.2656,58.9844 L40.3906,58.9844 Z "/><text fill="#000000" font-family="sans-serif" font-size="12" lengthAdjust="spacingAndGlyphs" textLength="36" x="51" y="61.5586">pc_gui</text><line style="stroke: #A80036; stroke-width: 1.5;" x1="23" x2="89" y1="73" y2="73"/><line style="stroke: #A80036; stroke-width: 1.5;" x1="23" x2="89" y1="81" y2="81"/><!--class pc_daemon--><rect fill="#FEFECE" filter="url(#fhhzgxxvp6qe0)" height="48" id="pc_daemon" style="stroke: #A80036; stroke-width: 1.5;" width="86" x="102" y="149"/><ellipse cx="117" cy="165" fill="#ADD1B2" rx="11" ry="11" style="stroke: #A80036; stroke-width: 1.0;"/><path d="M120.3906,166.9844 Q119.9688,171.9688 116.6563,171.9688 Q114.7031,171.9688 113.6563,169.9688 Q112.7813,168.2969 112.7813,165.3594 Q112.7813,162.3438 113.75,160.5781 Q114.75,158.7031 116.6563,158.7031 Q119.6875,158.7031 120.3125,163.1406 L118.2344,163.1406 Q117.875,160.6719 116.6563,160.6719 Q114.9219,160.6719 114.9219,165.3594 Q114.9219,170 116.6719,170 Q118.1094,170 118.2656,166.9844 L120.3906,166.9844 Z "/><text fill="#000000" font-family="sans-serif" font-size="12" lengthAdjust="spacingAndGlyphs" textLength="54" x="131" y="169.5586">pc_daemon</text><line style="stroke: #A80036; stroke-width: 1.5;" x1="103" x2="187" y1="181" y2="181"/><line style="stroke: #A80036; stroke-width: 1.5;" x1="103" x2="187" y1="189" y2="189"/><!--class android_gui--><rect fill="#FEFECE" filter="url(#fhhzgxxvp6qe0)" height="48" id="android_gui" style="stroke: #A80036; stroke-width: 1.5;" width="98" x="232" y="41"/><ellipse cx="247" cy="57" fill="#ADD1B2" rx="11" ry="11" style="stroke: #A80036; stroke-width: 1.0;"/><path d="M250.3906,58.9844 Q249.9688,63.9688 246.6563,63.9688 Q244.7031,63.9688 243.6563,61.9688 Q242.7813,60.2969 242.7813,57.3594 Q242.7813,54.3438 243.75,52.5781 Q244.75,50.7031 246.6563,50.7031 Q249.6875,50.7031 250.3125,55.1406 L248.2344,55.1406 Q247.875,52.6719 246.6563,52.6719 Q244.9219,52.6719 244.9219,57.3594 Q244.9219,62 246.6719,62 Q248.1094,62 248.2656,58.9844 L250.3906,58.9844 Z "/><text fill="#000000" font-family="sans-serif" font-size="12" lengthAdjust="spacingAndGlyphs" textLength="66" x="261" y="61.5586">android_gui</text><line style="stroke: #A80036; stroke-width: 1.5;" x1="233" x2="329" y1="73" y2="73"/><line style="stroke: #A80036; stroke-width: 1.5;" x1="233" x2="329" y1="81" y2="81"/><!--class android_daemon--><rect fill="#FEFECE" filter="url(#fhhzgxxvp6qe0)" height="48" id="android_daemon" style="stroke: #A80036; stroke-width: 1.5;" width="116" x="223" y="149"/><ellipse cx="238" cy="165" fill="#ADD1B2" rx="11" ry="11" style="stroke: #A80036; stroke-width: 1.0;"/><path d="M241.3906,166.9844 Q240.9688,171.9688 237.6563,171.9688 Q235.7031,171.9688 234.6563,169.9688 Q233.7813,168.2969 233.7813,165.3594 Q233.7813,162.3438 234.75,160.5781 Q235.75,158.7031 237.6563,158.7031 Q240.6875,158.7031 241.3125,163.1406 L239.2344,163.1406 Q238.875,160.6719 237.6563,160.6719 Q235.9219,160.6719 235.9219,165.3594 Q235.9219,170 237.6719,170 Q239.1094,170 239.2656,166.9844 L241.3906,166.9844 Z "/><text fill="#000000" font-family="sans-serif" font-size="12" lengthAdjust="spacingAndGlyphs" textLength="84" x="252" y="169.5586">android_daemon</text><line style="stroke: #A80036; stroke-width: 1.5;" x1="224" x2="338" y1="181" y2="181"/><line style="stroke: #A80036; stroke-width: 1.5;" x1="224" x2="338" y1="189" y2="189"/><!--class hashira_store--><rect fill="#FEFECE" filter="url(#fhhzgxxvp6qe0)" height="48" id="hashira_store" style="stroke: #A80036; stroke-width: 1.5;" width="110" x="158" y="257"/><ellipse cx="173" cy="273" fill="#ADD1B2" rx="11" ry="11" style="stroke: #A80036; stroke-width: 1.0;"/><path d="M176.3906,274.9844 Q175.9688,279.9688 172.6563,279.9688 Q170.7031,279.9688 169.6563,277.9688 Q168.7813,276.2969 168.7813,273.3594 Q168.7813,270.3438 169.75,268.5781 Q170.75,266.7031 172.6563,266.7031 Q175.6875,266.7031 176.3125,271.1406 L174.2344,271.1406 Q173.875,268.6719 172.6563,268.6719 Q170.9219,268.6719 170.9219,273.3594 Q170.9219,278 172.6719,278 Q174.1094,278 174.2656,274.9844 L176.3906,274.9844 Z "/><text fill="#000000" font-family="sans-serif" font-size="12" lengthAdjust="spacingAndGlyphs" textLength="78" x="187" y="277.5586">hashira_store</text><line style="stroke: #A80036; stroke-width: 1.5;" x1="159" x2="267" y1="289" y2="289"/><line style="stroke: #A80036; stroke-width: 1.5;" x1="159" x2="267" y1="297" y2="297"/><!--link pc_cli to pc_daemon--><path d="M155.8581,89.2373 C153.7686,105.3565 151.0121,126.6212 148.7993,143.6911 " fill="none" id="pc_cli-pc_daemon" style="stroke: #A80036; stroke-width: 1.0;"/><polygon fill="#A80036" points="148.1314,148.8436,153.2554,140.4326,148.7743,143.8851,145.3218,139.404,148.1314,148.8436" style="stroke: #A80036; stroke-width: 1.0;"/><!--link pc_gui to pc_daemon--><path d="M75.9733,89.2373 C89.4858,105.6345 107.386,127.356 121.5717,144.5702 " fill="none" id="pc_gui-pc_daemon" style="stroke: #A80036; stroke-width: 1.0;"/><polygon fill="#A80036" points="125.0933,148.8436,122.4564,139.3543,121.9134,144.985,116.2827,144.4421,125.0933,148.8436" style="stroke: #A80036; stroke-width: 1.0;"/><!--link pc_daemon to hashira_store--><path d="M160.2605,197.2373 C170.5847,213.6345 184.2612,235.356 195.0998,252.5702 " fill="none" id="pc_daemon-hashira_store" style="stroke: #A80036; stroke-width: 1.0;"/><polygon fill="#A80036" points="197.7904,256.8436,196.3801,247.0962,195.1264,252.6124,189.6102,251.3587,197.7904,256.8436" style="stroke: #A80036; stroke-width: 1.0;"/><!--link android_gui to android_daemon--><path d="M281,89.2373 C281,105.3565 281,126.6212 281,143.6911 " fill="none" id="android_gui-android_daemon" style="stroke: #A80036; stroke-width: 1.0;"/><polygon fill="#A80036" points="281,148.8436,285,139.8436,281,143.8436,277,139.8436,281,148.8436" style="stroke: #A80036; stroke-width: 1.0;"/><!--link android_daemon to hashira_store--><path d="M265.7395,197.2373 C255.4153,213.6345 241.7388,235.356 230.9002,252.5702 " fill="none" id="android_daemon-hashira_store" style="stroke: #A80036; stroke-width: 1.0;"/><polygon fill="#A80036" points="228.2096,256.8436,236.3898,251.3587,230.8736,252.6124,229.6199,247.0962,228.2096,256.8436" style="stroke: #A80036; stroke-width: 1.0;"/><!--
@startuml

package pc {
    class pc_cli {
    }
    class pc_gui {
    }
    class pc_daemon {
    }
}

package android {
    class android_gui {
    }
    class android_daemon {
    }
}

package cloud {
    class hashira_store {
    }
}

pc_cli    - -> pc_daemon
pc_gui    - -> pc_daemon
pc_daemon - -> hashira_store

android_gui    - -> android_daemon
android_daemon - -> hashira_store

@enduml

PlantUML version 1.2017.14(Mon Jun 05 18:56:32 JST 2017)
(GPL source distribution)
Java Runtime: OpenJDK Runtime Environment
JVM: OpenJDK 64-Bit Server VM
Java Version: 1.8.0_144-b01
Operating System: Linux
OS Version: 4.11.12-1-MANJARO
Default Encoding: UTF-8
Language: en
Country: US
--></g></svg>