<?xml version="1.0" encoding="UTF-8" standalone="no"?><svg xmlns="http://www.w3.org/2000/svg" xmlns:xlink="http://www.w3.org/1999/xlink" contentScriptType="application/ecmascript" contentStyleType="text/css" height="350px" preserveAspectRatio="none" style="width:379px;height:350px;" version="1.1" viewBox="0 0 379 350" width="379px" zoomAndPan="magnify"><defs><filter height="300%" id="f1rjn6ctikuqvm" width="300%" x="-1" y="-1"><feGaussianBlur result="blurOut" stdDeviation="2.0"/><feColorMatrix in="blurOut" result="blurOut2" type="matrix" values="0 0 0 0 0 0 0 0 0 0 0 0 0 0 0 0 0 0 .4 0"/><feOffset dx="4.0" dy="4.0" in="blurOut2" result="blurOut3"/><feBlend in="SourceGraphic" in2="blurOut3" mode="normal"/></filter></defs><g><!--cluster local--><polygon fill="#FFFFFF" filter="url(#f1rjn6ctikuqvm)" points="14,16,60,16,67,36,357,36,357,238,14,238,14,16" style="stroke: #000000; stroke-width: 2.0;"/><line style="stroke: #000000; stroke-width: 2.0;" x1="14" x2="67" y1="36" y2="36"/><text fill="#000000" font-family="sans-serif" font-size="14" font-weight="bold" lengthAdjust="spacingAndGlyphs" textLength="40" x="18" y="30.3184">local</text><!--cluster pc--><polygon fill="#FFFFFF" filter="url(#f1rjn6ctikuqvm)" points="162,41,184,41,191,61,349,61,349,230,162,230,162,41" style="stroke: #000000; stroke-width: 2.0;"/><line style="stroke: #000000; stroke-width: 2.0;" x1="162" x2="191" y1="61" y2="61"/><text fill="#000000" font-family="sans-serif" font-size="14" font-weight="bold" lengthAdjust="spacingAndGlyphs" textLength="16" x="166" y="55.3184">pc</text><!--cluster android--><polygon fill="#FFFFFF" filter="url(#f1rjn6ctikuqvm)" points="22,41,84,41,91,61,154,61,154,230,22,230,22,41" style="stroke: #000000; stroke-width: 2.0;"/><line style="stroke: #000000; stroke-width: 2.0;" x1="22" x2="91" y1="61" y2="61"/><text fill="#000000" font-family="sans-serif" font-size="14" font-weight="bold" lengthAdjust="spacingAndGlyphs" textLength="56" x="26" y="55.3184">android</text><!--cluster cloud--><polygon fill="#FFFFFF" filter="url(#f1rjn6ctikuqvm)" points="105,257,151,257,158,277,207,277,207,338,105,338,105,257" style="stroke: #000000; stroke-width: 2.0;"/><line style="stroke: #000000; stroke-width: 2.0;" x1="105" x2="158" y1="277" y2="277"/><text fill="#000000" font-family="sans-serif" font-size="14" font-weight="bold" lengthAdjust="spacingAndGlyphs" textLength="40" x="109" y="271.3184">cloud</text><!--class pc_cli--><rect fill="#FEFECE" filter="url(#f1rjn6ctikuqvm)" height="48" id="pc_cli" style="stroke: #A80036; stroke-width: 1.5;" width="68" x="273" y="66"/><ellipse cx="288" cy="82" fill="#ADD1B2" rx="11" ry="11" style="stroke: #A80036; stroke-width: 1.0;"/><path d="M291.3906,83.9844 Q290.9688,88.9688 287.6563,88.9688 Q285.7031,88.9688 284.6563,86.9688 Q283.7813,85.2969 283.7813,82.3594 Q283.7813,79.3438 284.75,77.5781 Q285.75,75.7031 287.6563,75.7031 Q290.6875,75.7031 291.3125,80.1406 L289.2344,80.1406 Q288.875,77.6719 287.6563,77.6719 Q285.9219,77.6719 285.9219,82.3594 Q285.9219,87 287.6719,87 Q289.1094,87 289.2656,83.9844 L291.3906,83.9844 Z "/><text fill="#000000" font-family="sans-serif" font-size="12" lengthAdjust="spacingAndGlyphs" textLength="36" x="302" y="86.5586">pc_cli</text><line style="stroke: #A80036; stroke-width: 1.5;" x1="274" x2="340" y1="98" y2="98"/><line style="stroke: #A80036; stroke-width: 1.5;" x1="274" x2="340" y1="106" y2="106"/><!--class pc_gui--><rect fill="#FEFECE" filter="url(#f1rjn6ctikuqvm)" height="48" id="pc_gui" style="stroke: #A80036; stroke-width: 1.5;" width="68" x="170" y="66"/><ellipse cx="185" cy="82" fill="#ADD1B2" rx="11" ry="11" style="stroke: #A80036; stroke-width: 1.0;"/><path d="M188.3906,83.9844 Q187.9688,88.9688 184.6563,88.9688 Q182.7031,88.9688 181.6563,86.9688 Q180.7813,85.2969 180.7813,82.3594 Q180.7813,79.3438 181.75,77.5781 Q182.75,75.7031 184.6563,75.7031 Q187.6875,75.7031 188.3125,80.1406 L186.2344,80.1406 Q185.875,77.6719 184.6563,77.6719 Q182.9219,77.6719 182.9219,82.3594 Q182.9219,87 184.6719,87 Q186.1094,87 186.2656,83.9844 L188.3906,83.9844 Z "/><text fill="#000000" font-family="sans-serif" font-size="12" lengthAdjust="spacingAndGlyphs" textLength="36" x="199" y="86.5586">pc_gui</text><line style="stroke: #A80036; stroke-width: 1.5;" x1="171" x2="237" y1="98" y2="98"/><line style="stroke: #A80036; stroke-width: 1.5;" x1="171" x2="237" y1="106" y2="106"/><!--class pc_daemon--><rect fill="#FEFECE" filter="url(#f1rjn6ctikuqvm)" height="48" id="pc_daemon" style="stroke: #A80036; stroke-width: 1.5;" width="86" x="181" y="174"/><ellipse cx="196" cy="190" fill="#ADD1B2" rx="11" ry="11" style="stroke: #A80036; stroke-width: 1.0;"/><path d="M199.3906,191.9844 Q198.9688,196.9688 195.6563,196.9688 Q193.7031,196.9688 192.6563,194.9688 Q191.7813,193.2969 191.7813,190.3594 Q191.7813,187.3438 192.75,185.5781 Q193.75,183.7031 195.6563,183.7031 Q198.6875,183.7031 199.3125,188.1406 L197.2344,188.1406 Q196.875,185.6719 195.6563,185.6719 Q193.9219,185.6719 193.9219,190.3594 Q193.9219,195 195.6719,195 Q197.1094,195 197.2656,191.9844 L199.3906,191.9844 Z "/><text fill="#000000" font-family="sans-serif" font-size="12" lengthAdjust="spacingAndGlyphs" textLength="54" x="210" y="194.5586">pc_daemon</text><line style="stroke: #A80036; stroke-width: 1.5;" x1="182" x2="266" y1="206" y2="206"/><line style="stroke: #A80036; stroke-width: 1.5;" x1="182" x2="266" y1="214" y2="214"/><!--class android_gui--><rect fill="#FEFECE" filter="url(#f1rjn6ctikuqvm)" height="48" id="android_gui" style="stroke: #A80036; stroke-width: 1.5;" width="98" x="37" y="66"/><ellipse cx="52" cy="82" fill="#ADD1B2" rx="11" ry="11" style="stroke: #A80036; stroke-width: 1.0;"/><path d="M55.3906,83.9844 Q54.9688,88.9688 51.6563,88.9688 Q49.7031,88.9688 48.6563,86.9688 Q47.7813,85.2969 47.7813,82.3594 Q47.7813,79.3438 48.75,77.5781 Q49.75,75.7031 51.6563,75.7031 Q54.6875,75.7031 55.3125,80.1406 L53.2344,80.1406 Q52.875,77.6719 51.6563,77.6719 Q49.9219,77.6719 49.9219,82.3594 Q49.9219,87 51.6719,87 Q53.1094,87 53.2656,83.9844 L55.3906,83.9844 Z "/><text fill="#000000" font-family="sans-serif" font-size="12" lengthAdjust="spacingAndGlyphs" textLength="66" x="66" y="86.5586">android_gui</text><line style="stroke: #A80036; stroke-width: 1.5;" x1="38" x2="134" y1="98" y2="98"/><line style="stroke: #A80036; stroke-width: 1.5;" x1="38" x2="134" y1="106" y2="106"/><!--class android_daemon--><rect fill="#FEFECE" filter="url(#f1rjn6ctikuqvm)" height="48" id="android_daemon" style="stroke: #A80036; stroke-width: 1.5;" width="116" x="30" y="174"/><ellipse cx="45" cy="190" fill="#ADD1B2" rx="11" ry="11" style="stroke: #A80036; stroke-width: 1.0;"/><path d="M48.3906,191.9844 Q47.9688,196.9688 44.6563,196.9688 Q42.7031,196.9688 41.6563,194.9688 Q40.7813,193.2969 40.7813,190.3594 Q40.7813,187.3438 41.75,185.5781 Q42.75,183.7031 44.6563,183.7031 Q47.6875,183.7031 48.3125,188.1406 L46.2344,188.1406 Q45.875,185.6719 44.6563,185.6719 Q42.9219,185.6719 42.9219,190.3594 Q42.9219,195 44.6719,195 Q46.1094,195 46.2656,191.9844 L48.3906,191.9844 Z "/><text fill="#000000" font-family="sans-serif" font-size="12" lengthAdjust="spacingAndGlyphs" textLength="84" x="59" y="194.5586">android_daemon</text><line style="stroke: #A80036; stroke-width: 1.5;" x1="31" x2="145" y1="206" y2="206"/><line style="stroke: #A80036; stroke-width: 1.5;" x1="31" x2="145" y1="214" y2="214"/><!--class datastore--><rect fill="#FEFECE" filter="url(#f1rjn6ctikuqvm)" height="48" id="datastore" style="stroke: #A80036; stroke-width: 1.5;" width="86" x="113" y="282"/><ellipse cx="128" cy="298" fill="#ADD1B2" rx="11" ry="11" style="stroke: #A80036; stroke-width: 1.0;"/><path d="M131.3906,299.9844 Q130.9688,304.9688 127.6563,304.9688 Q125.7031,304.9688 124.6563,302.9688 Q123.7813,301.2969 123.7813,298.3594 Q123.7813,295.3438 124.75,293.5781 Q125.75,291.7031 127.6563,291.7031 Q130.6875,291.7031 131.3125,296.1406 L129.2344,296.1406 Q128.875,293.6719 127.6563,293.6719 Q125.9219,293.6719 125.9219,298.3594 Q125.9219,303 127.6719,303 Q129.1094,303 129.2656,299.9844 L131.3906,299.9844 Z "/><text fill="#000000" font-family="sans-serif" font-size="12" lengthAdjust="spacingAndGlyphs" textLength="54" x="142" y="302.5586">datastore</text><line style="stroke: #A80036; stroke-width: 1.5;" x1="114" x2="198" y1="314" y2="314"/><line style="stroke: #A80036; stroke-width: 1.5;" x1="114" x2="198" y1="322" y2="322"/><!--link pc_cli to pc_daemon--><path d="M288.3732,114.2373 C275.7717,130.6345 259.0782,152.356 245.8488,169.5702 " fill="none" id="pc_cli-pc_daemon" style="stroke: #A80036; stroke-width: 1.0;"/><polygon fill="#A80036" points="242.5647,173.8436,251.2206,169.1451,245.6116,169.8792,244.8775,164.2701,242.5647,173.8436" style="stroke: #A80036; stroke-width: 1.0;"/><!--link pc_gui to pc_daemon--><path d="M208.4884,114.2373 C211.4734,130.3565 215.4113,151.6212 218.5724,168.6911 " fill="none" id="pc_gui-pc_daemon" style="stroke: #A80036; stroke-width: 1.0;"/><polygon fill="#A80036" points="219.5266,173.8436,221.8207,164.2657,218.616,168.9272,213.9545,165.7226,219.5266,173.8436" style="stroke: #A80036; stroke-width: 1.0;"/><!--link android_gui to android_daemon--><path d="M86.4488,114.2373 C86.7473,130.3565 87.1411,151.6212 87.4572,168.6911 " fill="none" id="android_gui-android_daemon" style="stroke: #A80036; stroke-width: 1.0;"/><polygon fill="#A80036" points="87.5527,173.8436,91.3851,164.771,87.46,168.8445,83.3865,164.9193,87.5527,173.8436" style="stroke: #A80036; stroke-width: 1.0;"/><!--link pc_daemon to datastore--><path d="M208.7395,222.2373 C198.4153,238.6345 184.7388,260.356 173.9002,277.5702 " fill="none" id="pc_daemon-datastore" style="stroke: #A80036; stroke-width: 1.0;"/><polygon fill="#A80036" points="171.2096,281.8436,179.3898,276.3587,173.8736,277.6124,172.6199,272.0962,171.2096,281.8436" style="stroke: #A80036; stroke-width: 1.0;"/><!--link android_daemon to datastore--><path d="M103.2605,222.2373 C113.5847,238.6345 127.2612,260.356 138.0998,277.5702 " fill="none" id="android_daemon-datastore" style="stroke: #A80036; stroke-width: 1.0;"/><polygon fill="#A80036" points="140.7904,281.8436,139.3801,272.0962,138.1264,277.6124,132.6102,276.3587,140.7904,281.8436" style="stroke: #A80036; stroke-width: 1.0;"/><!--
@startuml

package local {
    package pc {
        class pc_cli {
        }
        class pc_gui {
        }
        class pc_daemon {
        }
    }
    
    package android {
        class android_gui {
        }
        class android_daemon {
        }
    }
}

package cloud {
    class datastore {
    }
}

pc_cli      - -> pc_daemon
pc_gui      - -> pc_daemon
android_gui - -> android_daemon

pc_daemon      - -> datastore
android_daemon - -> datastore

@enduml

PlantUML version 1.2017.14(Mon Jun 05 18:56:32 JST 2017)
(GPL source distribution)
Java Runtime: OpenJDK Runtime Environment
JVM: OpenJDK 64-Bit Server VM
Java Version: 1.8.0_144-b01
Operating System: Linux
OS Version: 4.12.14-1-MANJARO
Default Encoding: UTF-8
Language: en
Country: US
--></g></svg>